<?xml version="1.0" encoding="UTF-8"?>
<svg version="1.1" xmlns="http://www.w3.org/2000/svg" width="549" height="455">
<path d="M0 0 C0.68578125 -0.02578125 1.3715625 -0.0515625 2.078125 -0.078125 C9.84392005 0.87556913 17.32467564 4.60320312 24.5 7.5625 C25.95732544 8.16070557 25.95732544 8.16070557 27.4440918 8.77099609 C33.558055 11.29735974 39.57134237 13.95957639 45.55078125 16.7890625 C50.12795279 18.87924828 54.78816495 20.75089549 59.44995117 22.64282227 C63.81457439 24.42417068 68.10799042 26.30480385 72.375 28.3125 C77.67708183 30.80720601 83.0531646 32.99940403 88.50512695 35.13647461 C92.41198479 36.67952787 96.1567299 38.36217207 99.86328125 40.33203125 C102.10547776 41.42295502 104.40328368 42.22109037 106.75 43.0625 C117.86969909 47.54103118 122.16170778 55.56738192 126.75 66.25 C127.93344331 69.05839988 129.10408199 71.87184449 130.27075195 74.68725586 C131.97631315 78.79507143 133.6975051 82.89614625 135.421875 86.99609375 C135.91189751 88.16128792 135.91189751 88.16128792 136.41181946 89.35002136 C144.5429032 108.69110717 144.5429032 108.69110717 152.75 128 C153.26203979 129.20257446 153.26203979 129.20257446 153.78442383 130.42944336 C155.4572736 134.33466401 157.18432718 138.20396953 158.99609375 142.046875 C165.2904124 155.46868531 168.29020916 165.64725065 163.75 180.25 C162.24247648 184.20220135 160.52057881 188.03452801 158.75 191.875 C157.76511135 194.05907795 156.78209923 196.2440029 155.80078125 198.4296875 C155.29756348 199.54698242 154.7943457 200.66427734 154.27587891 201.81542969 C151.74659292 207.50854894 149.34467686 213.25443908 146.9375 219 C143.74460699 226.60523564 140.46455952 234.13200078 136.94140625 241.58984375 C135.35328349 245.13578341 134.09311421 248.76783559 132.8125 252.43359375 C131.17611065 256.77122875 129.1721448 260.92399574 127.18359375 265.109375 C125.91056628 267.89824171 124.84319496 270.67832354 123.8125 273.5625 C120.5504675 281.76418172 115.38048019 286.50813167 107.421875 290.1015625 C106.54015625 290.48054688 105.6584375 290.85953125 104.75 291.25 C102.91652996 292.10387319 101.08319815 292.95804324 99.25 293.8125 C95.05642607 295.73013112 90.79469878 297.44216315 86.51123047 299.14575195 C74.79912258 303.82955955 63.07273756 308.56236714 51.6875 314 C46.28040498 316.57969785 40.82518963 318.86681987 35.24975586 321.04516602 C31.01593616 322.71066571 26.87584714 324.52091655 22.75 326.4375 C21.15671875 327.17613281 21.15671875 327.17613281 19.53125 327.9296875 C17.41760333 328.93307595 15.32765846 329.98656973 13.25 331.0625 C-2.70203567 336.47479782 -16.76345777 329.29131254 -31.25 322.875 C-32.52577285 322.31709322 -33.80181415 321.75979991 -35.078125 321.203125 C-41.13253091 318.55430422 -47.15505754 315.84337463 -53.1484375 313.05859375 C-58.01007991 310.80241118 -62.89971815 308.678596 -67.875 306.6875 C-73.43922082 304.45420434 -78.90390086 302.05759253 -84.35449219 299.55932617 C-87.2698951 298.24100359 -90.20163819 296.97050078 -93.14453125 295.71484375 C-94.11970703 295.29783203 -95.09488281 294.88082031 -96.09960938 294.45117188 C-98.09280818 293.60107324 -100.08763512 292.75478298 -102.08398438 291.91210938 C-113.70203268 286.92632018 -120.07118681 281.79439717 -125.03125 270.01953125 C-125.94958311 267.70527918 -126.85560981 265.38611024 -127.75 263.0625 C-130.89025949 255.03990623 -134.16390192 247.15229107 -137.82177734 239.35083008 C-139.96880912 234.68938554 -141.89707576 229.94774115 -143.8125 225.1875 C-144.59488614 223.26165133 -145.3774365 221.33586936 -146.16015625 219.41015625 C-146.85694689 217.69017548 -147.55358322 215.97013218 -148.25 214.25 C-150.54832645 208.5860331 -152.91527348 202.96694259 -155.4453125 197.40234375 C-155.84427734 196.52400879 -156.24324219 195.64567383 -156.65429688 194.74072266 C-157.44531045 193.00523888 -158.2406189 191.27170368 -159.04101562 189.54052734 C-164.39294963 177.82444572 -168.00295877 167.36967764 -163.50366211 154.59716797 C-162.1713298 151.11074737 -160.7160977 147.68179405 -159.25 144.25 C-158.59181278 142.65574632 -157.93561841 141.06066868 -157.28125 139.46484375 C-154.46736451 132.65475664 -151.5673174 125.90800076 -148.44140625 119.234375 C-144.77044057 111.32098165 -141.48059597 103.26310787 -138.1875 95.1875 C-137.58295507 93.7101748 -136.97813832 92.23296081 -136.37304688 90.75585938 C-136.0769754 90.03302261 -135.78090393 89.31018585 -135.4758606 88.56544495 C-135.03728226 87.49470985 -135.03728226 87.49470985 -134.58984375 86.40234375 C-134.30172821 85.69863144 -134.01361267 84.99491913 -133.71676636 84.2698822 C-126.04385525 65.53227544 -126.04385525 65.53227544 -122.75 58.8125 C-122.2034375 57.67941406 -121.656875 56.54632813 -121.09375 55.37890625 C-119.14460536 52.07114172 -117.1773092 49.72802282 -114.25 47.25 C-113.26 47.25 -112.27 47.25 -111.25 47.25 C-111.25 46.59 -111.25 45.93 -111.25 45.25 C-101.89760105 40.92359497 -92.42834285 36.94060826 -82.87890625 33.07421875 C-81.91315674 32.68202148 -80.94740723 32.28982422 -79.95239258 31.88574219 C-78.02503157 31.10351381 -76.09653012 30.3240879 -74.16674805 29.54785156 C-69.38842058 27.60813027 -64.74993278 25.54868377 -60.16259766 23.19458008 C-56.87254279 21.56971127 -53.46806554 20.23603961 -50.0625 18.875 C-44.94180461 16.79905742 -39.87757791 14.66326324 -34.875 12.3125 C-29.38025232 9.73901058 -23.83314366 7.31142258 -18.25 4.9375 C-17.43611816 4.5876001 -16.62223633 4.2377002 -15.78369141 3.87719727 C-10.5175527 1.65402092 -5.76178481 0.12803966 0 0 Z " fill="#030202" transform="translate(274.25,60.75)"/>
<path d="M0 0 C7.92 0 15.84 0 24 0 C24.33 0.99 24.66 1.98 25 3 C25.66 3 26.32 3 27 3 C27.350625 4.0725 27.70125 5.145 28.0625 6.25 C29.85192883 11.0329593 32.41862927 15.21583959 35.03515625 19.5859375 C38.32673432 25.30529979 41.18823618 31.23468281 44.09082031 37.15820312 C45.74973683 40.51880092 47.47095255 43.84823027 49.1875 47.1796875 C50 49 50 49 50 51 C50.99 51 51.98 51 53 51 C53.061875 50.21625 53.12375 49.4325 53.1875 48.625 C55.10163111 40.08503044 60.38896686 32.52247185 64.68798828 24.97753906 C67.8061924 19.45820001 70.47656564 13.81487047 73 8 C75.7 2.3 75.7 2.3 78 0 C85.92 0 93.84 0 102 0 C102 31.35 102 62.7 102 95 C94.74 95 87.48 95 80 95 C79.67 76.85 79.34 58.7 79 40 C76.13983846 45.68877474 76.13983846 45.68877474 73.51953125 51.48828125 C71.77787091 55.51335233 69.7691334 59.33080985 67.6875 63.1875 C64.00506566 70.07087175 60.4560159 76.9993524 57 84 C52.71 84 48.42 84 44 84 C43.58105469 83.01 43.16210938 82.02 42.73046875 81 C35.31612942 61.23219276 35.31612942 61.23219276 24 44 C23.67 61.16 23.34 78.32 23 96 C2 96 2 96 0 95 C0 63.65 0 32.3 0 0 Z " fill="#B20404" transform="translate(146,179)"/>
<path d="M0 0 C3.35836527 2.67332559 5.83363207 5.39895485 8.35546875 8.875 C8.35546875 9.535 8.35546875 10.195 8.35546875 10.875 C7.73671875 10.9575 7.11796875 11.04 6.48046875 11.125 C4.19785526 11.65033181 4.19785526 11.65033181 3.46484375 13.71484375 C2.15562041 16.26414132 0.7521733 17.4601473 -1.51953125 19.1875 C-2.19757813 19.71988281 -2.875625 20.25226563 -3.57421875 20.80078125 C-5.64453125 21.875 -5.64453125 21.875 -7.734375 21.69140625 C-9.64453125 20.875 -9.64453125 20.875 -12.33203125 18.5 C-18.66259046 13.06705739 -26.28638531 12.2058053 -34.41796875 12.38671875 C-41.48600785 13.45633726 -46.91462058 17.69887134 -51.64453125 22.875 C-56.40458897 29.89755429 -56.56788176 37.65811311 -55.64453125 45.875 C-53.64630082 53.83586453 -49.74666341 59.7169038 -43.26953125 64.75 C-37.26501866 68.27067247 -30.3427754 67.65369792 -23.64453125 66.875 C-18.67973972 65.53585967 -14.90272804 63.1305199 -10.83203125 60.0625 C-7.64453125 57.875 -7.64453125 57.875 -5.6953125 58.05859375 C-3.33920826 58.99654763 -1.63808886 60.18474578 0.35546875 61.75 C1.34546875 62.51957031 1.34546875 62.51957031 2.35546875 63.3046875 C3.34546875 64.08199219 3.34546875 64.08199219 4.35546875 64.875 C5.68658028 65.87795556 7.01927762 66.87882179 8.35546875 67.875 C7.84374293 72.35260091 6.35078137 74.55184222 3.35546875 77.875 C-9.65635566 88.08767053 -23.20064653 91.32833241 -39.64453125 89.875 C-51.73284569 87.54678275 -60.4744064 81.88143684 -68.64453125 72.875 C-69.69640625 71.7303125 -69.69640625 71.7303125 -70.76953125 70.5625 C-79.50428262 58.0426897 -81.21931967 44.7808098 -79.64453125 29.875 C-77.07904551 16.88722842 -69.47374342 5.48666355 -58.64453125 -2.125 C-40.97862882 -13.40192682 -16.88408291 -11.57195638 0 0 Z " fill="#CC0505" transform="translate(396.64453125,186.125)"/>
<path d="M0 0 C0.495 0.99 0.495 0.99 1 2 C-0.15869918 4.56291085 -1.37407817 7.01792963 -2.6875 9.5 C-5.43334682 14.82115151 -7.94217583 20.09638105 -10.0703125 25.69921875 C-11.42991161 29.06394092 -13.08164832 32.26205759 -14.75390625 35.48046875 C-15.93873161 37.87611877 -16.9888983 40.30657482 -18.02954102 42.76733398 C-20.31864346 48.03370929 -22.77422347 53.22721039 -25.1875 58.4375 C-25.752042 59.65816202 -26.31649588 60.87886481 -26.88085938 62.09960938 C-28.25304138 65.06680636 -29.62640353 68.03345754 -31 71 C-24.4 71 -17.8 71 -11 71 C-13.27365357 76.68413392 -13.27365357 76.68413392 -15.3125 79.5 C-15.70050781 80.0465625 -16.08851563 80.593125 -16.48828125 81.15625 C-18 83 -18 83 -20.40625 85.375 C-22.95205006 87.95147235 -25.04973872 90.58013093 -27.1875 93.5 C-27.96609375 94.55316406 -28.7446875 95.60632813 -29.546875 96.69140625 C-29.94970703 97.23684082 -30.35253906 97.78227539 -30.76757812 98.34423828 C-32.79330672 101.06580947 -34.86461828 103.75176983 -36.9375 106.4375 C-37.35128906 106.97479736 -37.76507813 107.51209473 -38.19140625 108.06567383 C-40.32503778 110.83468827 -42.46456359 113.59901233 -44.609375 116.359375 C-50.47092106 123.91724874 -56.17433838 131.55074602 -61.3125 139.625 C-62.1478125 140.800625 -62.1478125 140.800625 -63 142 C-63.66 142 -64.32 142 -65 142 C-65.28875 142.5775 -65.5775 143.155 -65.875 143.75 C-66.91666667 145.83333333 -67.95833333 147.91666667 -69 150 C-69.66 150 -70.32 150 -71 150 C-71.2475 150.5775 -71.495 151.155 -71.75 151.75 C-73.16683317 154.3002997 -74.87627537 156.01785701 -77 158 C-75.8966641 153.5866564 -74.7782434 150.55615155 -72 147 C-71.27267668 145.38005261 -70.55112016 143.75686186 -69.87890625 142.11328125 C-68.42374919 138.61443694 -66.8181648 135.1839831 -65.2421875 131.73828125 C-64.19919571 129.43910753 -63.18889971 127.12989844 -62.1875 124.8125 C-60.2974767 120.52537398 -58.18028624 116.36491034 -56.0625 112.1875 C-52.71224273 105.5732882 -49.71903302 98.90216074 -47 92 C-46.34 92 -45.68 92 -45 92 C-45 90.68 -45 89.36 -45 88 C-51.27 88 -57.54 88 -64 88 C-62.57627331 85.15254662 -61.14691055 82.46137713 -59.5 79.75 C-59.0771875 79.04359375 -58.654375 78.3371875 -58.21875 77.609375 C-57.61546875 76.81273437 -57.61546875 76.81273437 -57 76 C-56.34 76 -55.68 76 -55 76 C-54.75636719 75.26910156 -54.51273437 74.53820312 -54.26171875 73.78515625 C-52.8486105 70.66581823 -51.20666958 68.87287732 -48.8125 66.4375 C-44.50279508 61.82243756 -41.47255481 57.02585154 -38.5078125 51.46875 C-37 49 -37 49 -34 47 C-32.79517061 45.2820354 -32.79517061 45.2820354 -31.8125 43.375 C-31.214375 42.26125 -30.61625 41.1475 -30 40 C-29.34 40 -28.68 40 -28 40 C-27.773125 39.319375 -27.54625 38.63875 -27.3125 37.9375 C-25.27719405 33.38229145 -22.52090736 29.47481926 -18.9375 26 C-16.89484544 23.89145336 -15.65966109 21.6888152 -14.26171875 19.125 C-10.21305408 12.30619634 -5.18148575 5.9910929 0 0 Z " fill="#B10606" transform="translate(321,148)"/>
<path d="M0 0 C0.33 0 0.66 0 1 0 C1.66 6.6 2.32 13.2 3 20 C3.99 19.34 4.98 18.68 6 18 C6 19.65 6 21.3 6 23 C8.31 23 10.62 23 13 23 C12.95359375 22.25234375 12.9071875 21.5046875 12.859375 20.734375 C12.56327543 12.65508685 12.56327543 12.65508685 14.75 9.375 C16.89393254 8.064819 18.52251333 7.35392667 21 7 C21.66 4.69 22.32 2.38 23 0 C24.43785189 2.87570377 23.94125588 5.29850252 23.8125 8.5 C23.76306854 16.54085053 25.41260796 22.83531405 30.25 29.3125 C36.12017064 35.04925767 39.98909838 37.3172511 48.4375 37.5625 C56.81352865 37.26305906 62.2153751 35.15964887 68.8125 30.1875 C72 28 72 28 73.94921875 28.18359375 C76.30532299 29.12154763 78.00644239 30.30974578 80 31.875 C80.99 32.64457031 80.99 32.64457031 82 33.4296875 C82.99 34.20699219 82.99 34.20699219 84 35 C85.33111153 36.00295556 86.66380887 37.00382179 88 38 C87.48827418 42.47760091 85.99531262 44.67684222 83 48 C69.98817559 58.21267053 56.44388472 61.45333241 40 60 C27.91168556 57.67178275 19.17012485 52.00643684 11 43 C10.29875 42.236875 9.5975 41.47375 8.875 40.6875 C2.12757885 31.01619635 -0.33241585 21.73363049 -0.125 10.0625 C-0.11597656 9.09248047 -0.10695313 8.12246094 -0.09765625 7.12304688 C-0.07426107 4.74843593 -0.04148176 2.37435224 0 0 Z " fill="#8D0506" transform="translate(317,216)"/>
<path d="M0 0 C0 0.33 0 0.66 0 1 C-2.31 1.33 -4.62 1.66 -7 2 C-7 1.34 -7 0.68 -7 0 C-8.32 0 -9.64 0 -11 0 C-11 0.99 -11 1.98 -11 3 C-16.61 3.66 -22.22 4.32 -28 5 C-28 4.01 -28 3.02 -28 2 C-33.71433548 3.46857176 -33.71433548 3.46857176 -39 6 C-39.33 6.66 -39.66 7.32 -40 8 C-43.35723464 10.05164339 -46.27345083 11.75781694 -50 13 C-50.33 14.98 -50.66 16.96 -51 19 C-50.01 19.33 -49.02 19.66 -48 20 C-48.825 20.7425 -49.65 21.485 -50.5 22.25 C-53.44844853 24.87387385 -53.44844853 24.87387385 -53 29 C-52.34 29 -51.68 29 -51 29 C-50.731875 28.360625 -50.46375 27.72125 -50.1875 27.0625 C-49 25 -49 25 -46 24 C-46 25.32 -46 26.64 -46 28 C-45.01 27.67 -44.02 27.34 -43 27 C-42.67 26.34 -42.34 25.68 -42 25 C-41.34 25 -40.68 25 -40 25 C-39.67 25.99 -39.34 26.98 -39 28 C-38.34 28 -37.68 28 -37 28 C-36.67 27.01 -36.34 26.02 -36 25 C-35.01 24.67 -34.02 24.34 -33 24 C-32.67 23.01 -32.34 22.02 -32 21 C-32.99 20.67 -33.98 20.34 -35 20 C-34.34 19.01 -33.68 18.02 -33 17 C-33 17.99 -33 18.98 -33 20 C-31.68 20 -30.36 20 -29 20 C-28.67 19.34 -28.34 18.68 -28 18 C-26.02 18.33 -24.04 18.66 -22 19 C-24.05009625 20.55155012 -26.10771634 22.07490837 -28.21875 23.54296875 C-33.7475334 27.52861569 -36.31193715 30.76369419 -39 37 C-39.99 37.495 -39.99 37.495 -41 38 C-41.40729228 40.32156597 -41.74438677 42.6568787 -42 45 C-44.64 45.66 -47.28 46.32 -50 47 C-49.98839844 47.92683594 -49.97679687 48.85367188 -49.96484375 49.80859375 C-49.95582031 51.00613281 -49.94679688 52.20367187 -49.9375 53.4375 C-49.92589844 54.63246094 -49.91429687 55.82742187 -49.90234375 57.05859375 C-50 60 -50 60 -51 61 C-53.33944736 60.71269945 -55.6739143 60.38063221 -58 60 C-58.495 58.515 -58.495 58.515 -59 57 C-59.99 57 -60.98 57 -62 57 C-62.38458185 53.00309578 -62.70986175 49.00485913 -63 45 C-63.10248047 43.71222656 -63.10248047 43.71222656 -63.20703125 42.3984375 C-63.73166161 30.46795444 -58.64895786 20.84934175 -51 12 C-38.01027478 -1.54355071 -17.75139128 -5.7640352 0 0 Z " fill="#B80607" transform="translate(381,179)"/>
<path d="M0 0 C0 3 0 3 -0.625 5.5625 C-0.74875 6.366875 -0.8725 7.17125 -1 8 C-0.34 8.66 0.32 9.32 1 10 C1 10.99 1 11.98 1 13 C0.01 13 -0.98 13 -2 13 C-2 13.99 -2 14.98 -2 16 C-1.2575 15.938125 -0.515 15.87625 0.25 15.8125 C3.54896278 16.03742928 4.7156709 16.63408772 7 19 C8.07992835 22.32285646 8.1196437 23.64106891 7 27 C7.99 27 8.98 27 10 27 C10.495 27.99 10.495 27.99 11 29 C13.37429296 29.25069913 13.37429296 29.25069913 16 29 C17.68798827 27.56249809 17.68798827 27.56249809 19 26 C19.66 26 20.32 26 21 26 C19.51478178 30.52316458 16.96796093 33.85889329 14 37.5 C13.00465338 38.74434796 12.00987433 39.98915011 11.015625 41.234375 C10.51224609 41.86150391 10.00886719 42.48863281 9.49023438 43.13476562 C2.14466526 52.32876104 -4.99064063 61.69064957 -11.3125 71.625 C-12.1478125 72.800625 -12.1478125 72.800625 -13 74 C-13.66 74 -14.32 74 -15 74 C-15.28875 74.5775 -15.5775 75.155 -15.875 75.75 C-16.91666667 77.83333333 -17.95833333 79.91666667 -19 82 C-19.66 82 -20.32 82 -21 82 C-21.2475 82.5775 -21.495 83.155 -21.75 83.75 C-23.16683317 86.3002997 -24.87627537 88.01785701 -27 90 C-25.8966641 85.5866564 -24.7782434 82.55615155 -22 79 C-21.27267668 77.38005261 -20.55112016 75.75686186 -19.87890625 74.11328125 C-18.42374919 70.61443694 -16.8181648 67.1839831 -15.2421875 63.73828125 C-14.19919571 61.43910753 -13.18889971 59.12989844 -12.1875 56.8125 C-10.2974767 52.52537398 -8.18028624 48.36491034 -6.0625 44.1875 C-2.71224273 37.5732882 0.28096698 30.90216074 3 24 C3.66 24 4.32 24 5 24 C5 22.68 5 21.36 5 20 C-1.27 20 -7.54 20 -14 20 C-12.57627331 17.15254662 -11.14691055 14.46137713 -9.5 11.75 C-9.0771875 11.04359375 -8.654375 10.3371875 -8.21875 9.609375 C-7.61546875 8.81273437 -7.61546875 8.81273437 -7 8 C-6.34 8 -5.68 8 -5 8 C-4.731875 7.236875 -4.46375 6.47375 -4.1875 5.6875 C-3.05575888 3.12619116 -2.08776599 1.80307062 0 0 Z M10 25 C10.99 25.495 10.99 25.495 12 26 C11.01 26.495 11.01 26.495 10 27 C10 26.34 10 25.68 10 25 Z " fill="#9F0708" transform="translate(271,216)"/>
<path d="M0 0 C2.2728959 3.40934385 3.98662154 6.94820023 5.78125 10.625 C7.02756402 13.16445403 7.02756402 13.16445403 9 16 C11.64 15.67 14.28 15.34 17 15 C16.9071875 16.1446875 16.9071875 16.1446875 16.8125 17.3125 C16.76833216 19.96327751 16.76833216 19.96327751 18.13671875 21.6484375 C20.76227582 23.55292963 22.79028136 23.30069956 26 23.3125 C29.23046875 23.49609375 29.23046875 23.49609375 32 24 C34.3125 26.875 34.3125 26.875 35 30 C34.505 31.485 34.505 31.485 34 33 C45.16385304 35.14689481 55.04443357 36.17755661 65 30 C65.66 30 66.32 30 67 30 C67 29.34 67 28.68 67 28 C64.69 28.33 62.38 28.66 60 29 C59.01 27.68 58.02 26.36 57 25 C60.34317668 23.27448946 62.76449885 22.95793743 66.4375 23.1875 C69.96456795 23.28743359 71.72130628 22.90846678 74.4375 20.625 C75.283125 19.75875 76.12875 18.8925 77 18 C77.66 17.34 78.32 16.68 79 16 C79 15.34 79 14.68 79 14 C79.66 14 80.32 14 81 14 C81.33 13.34 81.66 12.68 82 12 C83.32 12.99 84.64 13.98 86 15 C85.48827418 19.47760091 83.99531262 21.67684222 81 25 C67.98817559 35.21267053 54.44388472 38.45333241 38 37 C25.91168556 34.67178275 17.17012485 29.00643684 9 20 C8.29875 19.236875 7.5975 18.47375 6.875 17.6875 C3.07834257 12.24562435 -0.43723894 6.80149469 0 0 Z " fill="#840202" transform="translate(319,239)"/>
<path d="M0 0 C0.66 0 1.32 0 2 0 C2.33 1.32 2.66 2.64 3 4 C2.67 4 2.34 4 2 4 C1.67 21.16 1.34 38.32 1 56 C-20 56 -20 56 -22 55 C-22 40.15 -22 25.3 -22 10 C-21.01 9.67 -20.02 9.34 -19 9 C-19 12.63 -19 16.26 -19 20 C-18.01 20 -17.02 20 -16 20 C-16 21.32 -16 22.64 -16 24 C-14.35 23.67 -12.7 23.34 -11 23 C-11.33 26.3 -11.66 29.6 -12 33 C-11.34 33.33 -10.68 33.66 -10 34 C-11.32 34.66 -12.64 35.32 -14 36 C-14.25030977 38.41619823 -14.25030977 38.41619823 -14 41 C-13.01 41.66 -12.02 42.32 -11 43 C-11.99 44.32 -12.98 45.64 -14 47 C-13.01 47.66 -12.02 48.32 -11 49 C-11.99 49 -12.98 49 -14 49 C-12.68 49.66 -11.36 50.32 -10 51 C-10 51.66 -10 52.32 -10 53 C-7.03 53 -4.06 53 -1 53 C-0.67 35.51 -0.34 18.02 0 0 Z " fill="#910304" transform="translate(168,219)"/>
<path d="M0 0 C0.33 0 0.66 0 1 0 C1.66 6.6 2.32 13.2 3 20 C3.99 19.34 4.98 18.68 6 18 C6 19.65 6 21.3 6 23 C8.31 23 10.62 23 13 23 C12.95359375 22.25234375 12.9071875 21.5046875 12.859375 20.734375 C12.56327543 12.65508685 12.56327543 12.65508685 14.75 9.375 C16.91204336 8.05375128 18.48229814 7.26045192 21 7 C23.11925604 9.11925604 22.41831017 13.6196093 22.5625 16.5625 C22.60568359 17.36880859 22.64886719 18.17511719 22.69335938 19.00585938 C22.79975262 21.00368805 22.90040888 23.0018207 23 25 C23.66 25.33 24.32 25.66 25 26 C24.34 27.32 23.68 28.64 23 30 C22.34 30 21.68 30 21 30 C21 30.99 21 31.98 21 33 C21.99 33 22.98 33 24 33 C24 33.66 24 34.32 24 35 C21.03 35.495 21.03 35.495 18 36 C18 36.66 18 37.32 18 38 C15.90605842 39.27132167 14.47289462 40 12 40 C6.50253226 37.25126613 4.35756803 29.585009 2.05078125 24.29296875 C1.19905851 22.082978 1.19905851 22.082978 0 21 C-0.08685603 19.43827255 -0.10702219 17.87270656 -0.09765625 16.30859375 C-0.09443359 15.36435547 -0.09121094 14.42011719 -0.08789062 13.44726562 C-0.07951172 12.45404297 -0.07113281 11.46082031 -0.0625 10.4375 C-0.05798828 9.44041016 -0.05347656 8.44332031 -0.04882812 7.41601562 C-0.03700007 4.94395151 -0.02051849 2.47200482 0 0 Z " fill="#A20505" transform="translate(317,216)"/>
<path d="M0 0 C0.66 0 1.32 0 2 0 C-0.54709677 9.30322581 -0.54709677 9.30322581 -2.625 12.5 C-4.77870213 16.41582205 -4.75193246 20.5946627 -5 25 C-2.57363029 24.84392658 -2.57363029 24.84392658 0 24 C1.49665828 22.01079381 1.49665828 22.01079381 2.5 19.5625 C4.69711538 15.16826923 4.69711538 15.16826923 7.8125 13.4375 C8.534375 13.293125 9.25625 13.14875 10 13 C8.63335863 15.95667603 7.04645082 18.3464526 5 20.875 C1.3491789 25.48253523 -2.06327093 30.23408873 -5.44726562 35.03857422 C-7.3034633 37.6647227 -9.18854679 40.23543231 -11.19921875 42.74609375 C-13.09737494 45.00662154 -13.09737494 45.00662154 -14.625 47.8125 C-15.07875 48.534375 -15.5325 49.25625 -16 50 C-16.66 50 -17.32 50 -18 50 C-18.28875 50.5775 -18.5775 51.155 -18.875 51.75 C-20.4375 54.875 -20.4375 54.875 -22 58 C-22.66 58 -23.32 58 -24 58 C-24.2475 58.5775 -24.495 59.155 -24.75 59.75 C-26.16683317 62.3002997 -27.87627537 64.01785701 -30 66 C-28.8966641 61.5866564 -27.7782434 58.55615155 -25 55 C-24.27267668 53.38005261 -23.55112016 51.75686186 -22.87890625 50.11328125 C-21.42374919 46.61443694 -19.8181648 43.1839831 -18.2421875 39.73828125 C-17.19919571 37.43910753 -16.18889971 35.12989844 -15.1875 32.8125 C-13.2974767 28.52537398 -11.18028624 24.36491034 -9.0625 20.1875 C-5.71224273 13.5732882 -2.71903302 6.90216074 0 0 Z " fill="#810608" transform="translate(274,240)"/>
<path d="M0 0 C0.33 0.66 0.66 1.32 1 2 C-0.15869918 4.56291085 -1.37407817 7.01792963 -2.6875 9.5 C-5.43334682 14.82115151 -7.94217583 20.09638105 -10.0703125 25.69921875 C-11.42991161 29.06394092 -13.08164832 32.26205759 -14.75390625 35.48046875 C-15.99387918 37.98762404 -17.09659164 40.53550514 -18.18579102 43.11108398 C-19.61237771 46.42067957 -21.15446416 49.67619829 -22.6875 52.9375 C-23.00783203 53.62134766 -23.32816406 54.30519531 -23.65820312 55.00976562 C-24.43778679 56.67365316 -25.21874751 58.33689538 -26 60 C-27.09658936 56.71023192 -26.79953138 55.28696233 -26 52 C-26.99 51.67 -27.98 51.34 -29 51 C-29.10629062 41.31236924 -27.47633747 35.28085144 -21 28 C-20.30003906 27.31164062 -19.60007812 26.62328125 -18.87890625 25.9140625 C-16.84923689 23.84641596 -15.64115295 21.65487141 -14.26171875 19.125 C-10.21305408 12.30619634 -5.18148575 5.9910929 0 0 Z " fill="#BA0A09" transform="translate(321,148)"/>
<path d="M0 0 C1.32 0 2.64 0 4 0 C4 0.66 4 1.32 4 2 C4.99 2 5.98 2 7 2 C6.67 3.32 6.34 4.64 6 6 C7.03060547 5.98259766 7.03060547 5.98259766 8.08203125 5.96484375 C8.98308594 5.95582031 9.88414062 5.94679687 10.8125 5.9375 C11.70582031 5.92589844 12.59914063 5.91429687 13.51953125 5.90234375 C16 6 16 6 19 7 C19 7.99 19 8.98 19 10 C18.34 10 17.68 10 17 10 C17.495 11.093125 17.99 12.18625 18.5 13.3125 C20 17 20 17 20 20 C18.68 20 17.36 20 16 20 C15.9175 19.38125 15.835 18.7625 15.75 18.125 C15.20721701 15.84645565 15.20721701 15.84645565 13.125 14.9375 C12.42375 14.628125 11.7225 14.31875 11 14 C9.25 12.375 9.25 12.375 8 11 C7.896875 11.639375 7.79375 12.27875 7.6875 12.9375 C7.460625 13.618125 7.23375 14.29875 7 15 C6.01 15.33 5.02 15.66 4 16 C3.67 15.01 3.34 14.02 3 13 C1.35 13 -0.3 13 -2 13 C-2 12.34 -2 11.68 -2 11 C-2.515625 11.165 -3.03125 11.33 -3.5625 11.5 C-6.84685626 12.1737141 -9.65428543 12.29872452 -13 12 C-15.5 10.25 -15.5 10.25 -17 8 C-16.67 6.68 -16.34 5.36 -16 4 C-8.08 3.505 -8.08 3.505 0 3 C0 2.01 0 1.02 0 0 Z " fill="#D1080A" transform="translate(370,179)"/>
<path d="M0 0 C7.92 0 15.84 0 24 0 C24 31.35 24 62.7 24 95 C16.74 95 9.48 95 2 95 C2 77.18 2 59.36 2 41 C2.33 41 2.66 41 3 41 C3.33 58.16 3.66 75.32 4 93 C6.97 93 9.94 93 13 93 C13.495 91.515 13.495 91.515 14 90 C14.99 90 15.98 90 17 90 C17 88.35 17 86.7 17 85 C17.66 85 18.32 85 19 85 C19 84.01 19 83.02 19 82 C17.515 81.505 17.515 81.505 16 81 C17.485 80.505 17.485 80.505 19 80 C19.66 80.66 20.32 81.32 21 82 C21.87979412 77.43615931 22.15058528 73.0789062 22.20532227 68.43408203 C22.22017166 67.3354911 22.22017166 67.3354911 22.23532104 66.21470642 C22.26671427 63.81244046 22.29160498 61.41015478 22.31640625 59.0078125 C22.33699497 57.33486439 22.35799193 55.66192125 22.37937927 53.98898315 C22.43440192 49.59965055 22.48389801 45.21027255 22.53222656 40.82086182 C22.58258679 36.33626293 22.63819684 31.85172944 22.69335938 27.3671875 C22.80069845 18.5781804 22.90219661 9.78911836 23 1 C19.41506751 0.99373576 15.83415463 1.05331691 12.25 1.125 C11.23421875 1.12242187 10.2184375 1.11984375 9.171875 1.1171875 C3.89043799 1.0611942 3.89043799 1.0611942 -0.59570312 3.39355469 C-1.86655883 5.19644509 -1.86655883 5.19644509 -3 8 C-3.33 7.34 -3.66 6.68 -4 6 C-1.68421053 1.68421053 -1.68421053 1.68421053 0 0 Z " fill="#880C0C" transform="translate(224,179)"/>
<path d="M0 0 C0.66 0.33 1.32 0.66 2 1 C2.37238718 3.32741989 2.69836866 5.66235715 3 8 C3.37125 9.258125 3.7425 10.51625 4.125 11.8125 C5 15 5 15 4 17 C4.99 17 5.98 17 7 17 C7 16.01 7 15.02 7 14 C7.66 14 8.32 14 9 14 C9 14.99 9 15.98 9 17 C9.5775 17.103125 10.155 17.20625 10.75 17.3125 C13.32049158 18.09792798 14.93657284 19.30504197 17 21 C19.12995103 18.59222927 19.96631273 17.23099841 20.4375 14 C21.12373109 10.34010086 22.37720178 9.54565709 25 7 C26.18156779 4.71133299 27.07295938 2.41030562 28 0 C28.66 0 29.32 0 30 0 C28.54963086 4.86963317 26.49781288 9.07622063 24.0625 13.5 C23.36514876 14.78084921 22.66852444 16.06209447 21.97265625 17.34375 C21.47403076 18.26027344 21.47403076 18.26027344 20.96533203 19.1953125 C19.58831977 21.76963589 18.28933593 24.38091008 17 27 C12.71 27 8.42 27 4 27 C3.37158203 25.52853516 3.37158203 25.52853516 2.73046875 24.02734375 C0.94576512 19.86303528 -0.86895705 15.71211888 -2.6875 11.5625 C-3.00783203 10.83095703 -3.32816406 10.09941406 -3.65820312 9.34570312 C-4.4385593 7.56369575 -5.21924499 5.78183267 -6 4 C-5.34 4 -4.68 4 -4 4 C-4 4.66 -4 5.32 -4 6 C-3.01 6 -2.02 6 -1 6 C-0.67 4.02 -0.34 2.04 0 0 Z M8 17 C6.515 18.98 6.515 18.98 5 21 C6.65 21 8.3 21 10 21 C9.34 19.68 8.68 18.36 8 17 Z " fill="#990505" transform="translate(186,236)"/>
<path d="M0 0 C4.01282706 3.42558408 5.730326 7.21961631 7.8125 11.9375 C10.86063044 18.65336423 14.14142206 25.12275942 17.75 31.55859375 C19 34 19 34 19 36 C19.99 36 20.98 36 22 36 C22.12375 35.030625 22.2475 34.06125 22.375 33.0625 C22.58125 32.051875 22.7875 31.04125 23 30 C23.66 29.67 24.32 29.34 25 29 C25.3125 32.3125 25.3125 32.3125 25 36 C22.5 37.9375 22.5 37.9375 20 39 C17.74672403 36.92573939 16.3453546 35.03557659 15.02734375 32.27734375 C14.68509766 31.57416016 14.34285156 30.87097656 13.99023438 30.14648438 C13.64283203 29.41751953 13.29542969 28.68855469 12.9375 27.9375 C12.24198901 26.48649817 11.54291909 25.03719544 10.83984375 23.58984375 C10.38146118 22.62872681 10.38146118 22.62872681 9.91381836 21.64819336 C8.99351714 19.80982132 8.99351714 19.80982132 7 18 C3.04 19.98 3.04 19.98 -1 22 C-0.505 17.545 -0.505 17.545 0 13 C-2.64 13 -5.28 13 -8 13 C-8 12.67 -8 12.34 -8 12 C-4.535 11.505 -4.535 11.505 -1 11 C-0.4254048 7.26513121 0 3.78706732 0 0 Z " fill="#C00A09" transform="translate(177,194)"/>
<path d="M0 0 C0.33 0 0.66 0 1 0 C1 4.62 1 9.24 1 14 C5.86132495 13.50847518 5.86132495 13.50847518 8 11 C7.67 12.98 7.34 14.96 7 17 C7.66 17 8.32 17 9 17 C9 17.66 9 18.32 9 19 C9.99 19.33 10.98 19.66 12 20 C12.02689216 21.47906892 12.04634621 22.95827483 12.0625 24.4375 C12.07410156 25.26121094 12.08570313 26.08492187 12.09765625 26.93359375 C12 29 12 29 11 30 C8.66055264 29.71269945 6.3260857 29.38063221 4 29 C3.67 28.01 3.34 27.02 3 26 C2.01 26 1.02 26 0 26 C-1.87253501 6.53901115 -1.87253501 6.53901115 0 0 Z " fill="#AD0404" transform="translate(319,210)"/>
<path d="M0 0 C0.66 0 1.32 0 2 0 C2.33 1.32 2.66 2.64 3 4 C2.67 4 2.34 4 2 4 C1.67 21.16 1.34 38.32 1 56 C-20 56 -20 56 -22 55 C-22 40.15 -22 25.3 -22 10 C-21.67 10 -21.34 10 -21 10 C-20.67 24.52 -20.34 39.04 -20 54 C-10.595 53.505 -10.595 53.505 -1 53 C-0.67 35.51 -0.34 18.02 0 0 Z " fill="#5A0405" transform="translate(168,219)"/>
<path d="M0 0 C3.01670863 0.62589656 4.34060307 1.95550279 6.08984375 4.43359375 C7.44424043 7.1423871 7.15485826 9.44292643 7.08984375 12.43359375 C4.27734375 12.62109375 4.27734375 12.62109375 1.08984375 12.43359375 C0.64640625 11.92828125 0.20296875 11.42296875 -0.25390625 10.90234375 C-1.87806278 9.14513898 -1.87806278 9.14513898 -4.609375 9.359375 C-5.59550781 9.48699219 -6.58164063 9.61460937 -7.59765625 9.74609375 C-8.59152344 9.86597656 -9.58539063 9.98585937 -10.609375 10.109375 C-11.36863281 10.21636719 -12.12789062 10.32335937 -12.91015625 10.43359375 C-11.65885925 2.67815921 -7.73139629 -0.42451926 0 0 Z " fill="#EF7573" transform="translate(229.91015625,198.56640625)"/>
<path d="M0 0 C2.475 0.495 2.475 0.495 5 1 C4.47557578 4.7758544 3.67345333 7.22372155 1 10 C0.01 10 -0.98 10 -2 10 C-2.33 10.99 -2.66 11.98 -3 13 C-4.9609375 14.421875 -4.9609375 14.421875 -7.375 15.75 C-8.16648437 16.19859375 -8.95796875 16.6471875 -9.7734375 17.109375 C-12 18 -12 18 -15 17 C-14.01 16.67 -13.02 16.34 -12 16 C-12 15.34 -12 14.68 -12 14 C-14.31 14.33 -16.62 14.66 -19 15 C-19.99 13.68 -20.98 12.36 -22 11 C-18.65682332 9.27448946 -16.23550115 8.95793743 -12.5625 9.1875 C-9.03543205 9.28743359 -7.27869372 8.90846678 -4.5625 6.625 C-3.716875 5.75875 -2.87125 4.8925 -2 4 C-1.34 3.34 -0.68 2.68 0 2 C0 1.34 0 0.68 0 0 Z " fill="#850202" transform="translate(398,253)"/>
<path d="M0 0 C0.33 0 0.66 0 1 0 C1 18.48 1 36.96 1 56 C0.34 56 -0.32 56 -1 56 C-1.33 41.15 -1.66 26.3 -2 11 C-2.66 12.65 -3.32 14.3 -4 16 C-6 19.3125 -6 19.3125 -8 22 C-8.66 22 -9.32 22 -10 22 C-8.35229639 16.30793299 -5.69886515 11.24496435 -3 6 C-2.39392519 4.79262262 -1.78937273 3.58447758 -1.1875 2.375 C-0.795625 1.59125 -0.40375 0.8075 0 0 Z " fill="#2F0101" transform="translate(225,218)"/>
<path d="M0 0 C1.08724757 2.76452583 1.01466666 3.95323393 0.109375 6.83984375 C-0.56351562 8.37318359 -0.56351562 8.37318359 -1.25 9.9375 C-1.68828125 10.95714844 -2.1265625 11.97679687 -2.578125 13.02734375 C-3.90633176 15.80417161 -5.3809955 18.38503486 -7 21 C-7.33 21.66 -7.66 22.32 -8 23 C-7.01 23 -6.02 23 -5 23 C-5 22.01 -5 21.02 -5 20 C-3.3777546 18.29006566 -1.70586575 16.62652316 0 15 C1.02813611 13.68824014 2.04084432 12.3630107 3 11 C3.66 11.33 4.32 11.66 5 12 C4.29423828 12.88751953 4.29423828 12.88751953 3.57421875 13.79296875 C-0.35158029 18.76519275 -0.35158029 18.76519275 -3.8125 24.0625 C-4.204375 24.701875 -4.59625 25.34125 -5 26 C-5.66 26 -6.32 26 -7 26 C-7.28875 26.5775 -7.5775 27.155 -7.875 27.75 C-8.91666667 29.83333333 -9.95833333 31.91666667 -11 34 C-11.66 34 -12.32 34 -13 34 C-13.2475 34.5775 -13.495 35.155 -13.75 35.75 C-15.16683317 38.3002997 -16.87627537 40.01785701 -19 42 C-17.8966641 37.5866564 -16.7782434 34.55615155 -14 31 C-13.27267668 29.38005261 -12.55112016 27.75686186 -11.87890625 26.11328125 C-10.82952698 23.59010709 -9.69904585 21.1101079 -8.5625 18.625 C-6.64248903 14.42063863 -4.75333914 10.20441038 -2.89453125 5.97265625 C-1.97937113 3.95450838 -1.00327885 1.97561959 0 0 Z " fill="#640609" transform="translate(263,264)"/>
<path d="M0 0 C0.66 0 1.32 0 2 0 C2.66 1.65 3.32 3.3 4 5 C3.071875 5.12375 3.071875 5.12375 2.125 5.25 C-0.15761349 5.77533181 -0.15761349 5.77533181 -0.890625 7.83984375 C-2.19984834 10.38914132 -3.60329545 11.5851473 -5.875 13.3125 C-6.55304688 13.84488281 -7.23109375 14.37726563 -7.9296875 14.92578125 C-10 16 -10 16 -12.08984375 15.81640625 C-14 15 -14 15 -16.6875 12.625 C-23.83171721 6.47599712 -32.97397314 6.40456689 -42 6 C-42 5.67 -42 5.34 -42 5 C-39.60385874 4.94574774 -37.20896147 4.90620973 -34.8125 4.875 C-33.80219727 4.84986328 -33.80219727 4.84986328 -32.77148438 4.82421875 C-28.65379191 4.78404614 -25.74812432 5.38149177 -22 7 C-19.66055264 6.71269945 -17.3260857 6.38063221 -15 6 C-12.5625 6.4375 -12.5625 6.4375 -11 7 C-10.67 6.01 -10.34 5.02 -10 4 C-9.505 4.99 -9.505 4.99 -9 6 C-9.66 6.99 -10.32 7.98 -11 9 C-11.66 9 -12.32 9 -13 9 C-12.67 9.99 -12.34 10.98 -12 12 C-7.02076087 10.72624115 -4.25485439 8.9988211 -1 5 C-0.12761142 2.32209104 -0.12761142 2.32209104 0 0 Z " fill="#A30C0F" transform="translate(401,192)"/>
<path d="M0 0 C2.475 1.485 2.475 1.485 5 3 C4.48827418 7.47760091 2.99531262 9.67684222 0 13 C-13.06792282 23.25670083 -26.50569034 26.31013865 -43 25 C-46.77577019 24.25848306 -50.37614179 23.28984784 -54 22 C-54 21.67 -54 21.34 -54 21 C-51.62471849 21.14203337 -49.24984749 21.28851612 -46.875 21.4375 C-46.20984375 21.47681641 -45.5446875 21.51613281 -44.859375 21.55664062 C-41.81549533 21.75061335 -38.87164327 22.0238766 -35.87109375 22.58203125 C-25.505996 24.09096385 -13.61649412 19.56481912 -5 14 C-4.67 13.34 -4.34 12.68 -4 12 C-3.01 11.67 -2.02 11.34 -1 11 C0.23277127 9.13977928 0.23277127 9.13977928 1.1875 6.9375 C1.53167969 6.20402344 1.87585938 5.47054688 2.23046875 4.71484375 C2.48441406 4.14894531 2.73835938 3.58304688 3 3 C2.01 2.67 1.02 2.34 0 2 C0 1.34 0 0.68 0 0 Z " fill="#680709" transform="translate(400,251)"/>
<path d="M0 0 C0.99 0.2165625 0.99 0.2165625 2 0.4375 C4.36540629 0.88101368 6.61232184 1.15341623 9 1.375 C12.59478445 1.80392314 15.09670653 2.73180198 18 5 C18 5.66 18 6.32 18 7 C18.66 7 19.32 7 20 7 C21.4606285 9.64738916 22 10.89448334 22 14 C19.625 13.8125 19.625 13.8125 17 13 C15.8359375 10.44921875 15.8359375 10.44921875 15 8 C14.16855469 7.96261719 13.33710938 7.92523438 12.48046875 7.88671875 C11.39378906 7.82097656 10.30710937 7.75523437 9.1875 7.6875 C8.10855469 7.62949219 7.02960938 7.57148438 5.91796875 7.51171875 C3 7 3 7 1.11328125 5.70703125 C0 4 0 4 0 0 Z " fill="#911014" transform="translate(336,256)"/>
<path d="M0 0 C0.66 0 1.32 0 2 0 C0.54963086 4.86963317 -1.50218712 9.07622063 -3.9375 13.5 C-4.63485124 14.78084921 -5.33147556 16.06209447 -6.02734375 17.34375 C-6.52596924 18.26027344 -6.52596924 18.26027344 -7.03466797 19.1953125 C-8.41168023 21.76963589 -9.71066407 24.38091008 -11 27 C-15.29 27 -19.58 27 -24 27 C-24.4125 26.01 -24.825 25.02 -25.25 24 C-26.73826262 20.4796865 -28.48185583 17.14156553 -30.328125 13.796875 C-31 12 -31 12 -30 9 C-29.01515892 10.74681293 -28.03733813 12.4975851 -27.0625 14.25 C-26.51722656 15.22453125 -25.97195312 16.1990625 -25.41015625 17.203125 C-24 20 -24 20 -23 24 C-19.7 24.33 -16.4 24.66 -13 25 C-13 24.01 -13 23.02 -13 22 C-13.66 22 -14.32 22 -15 22 C-15 21.34 -15 20.68 -15 20 C-13.68 20.33 -12.36 20.66 -11 21 C-8.87004897 18.59222927 -8.03368727 17.23099841 -7.5625 14 C-6.87626891 10.34010086 -5.62279822 9.54565709 -3 7 C-1.81843221 4.71133299 -0.92704062 2.41030562 0 0 Z " fill="#780809" transform="translate(214,236)"/>
<path d="M0 0 C1.67542976 0.28604898 3.34385343 0.61781233 5 1 C5 2.32 5 3.64 5 5 C5.66 5 6.32 5 7 5 C7 3.68 7 2.36 7 1 C7.99 1 8.98 1 10 1 C8.32073668 5.36778087 6.36694083 9.58165008 4.375 13.8125 C3.88773437 14.85180664 3.88773437 14.85180664 3.390625 15.91210938 C2.59500115 17.60866023 1.79767301 19.30441165 1 21 C-0.09658936 17.71023192 0.20046862 16.28696233 1 13 C0.01 12.67 -0.98 12.34 -2 12 C-1.85962479 10.18706911 -1.71255111 8.3746557 -1.5625 6.5625 C-1.48128906 5.55316406 -1.40007812 4.54382813 -1.31640625 3.50390625 C-1 1 -1 1 0 0 Z " fill="#B71213" transform="translate(294,187)"/>
<path d="M0 0 C-0.32529059 2.92761527 -0.59569177 5.32615294 -2.125 7.875 C-5.16832808 9.70099685 -7.54249555 9.42460581 -11 9 C-13.5 7.25 -13.5 7.25 -15 5 C-14.59375 2.859375 -14.59375 2.859375 -14 1 C-4.58997722 -0.14806378 -4.58997722 -0.14806378 0 0 Z " fill="#F7726C" transform="translate(368,182)"/>
<path d="M0 0 C3.63 0 7.26 0 11 0 C10 3 10 3 8 4 C7.67 4.99 7.34 5.98 7 7 C4.25147379 10.04566418 1.82622743 12.4411666 -2 14 C-2 13.34 -2 12.68 -2 12 C-3.32 12.33 -4.64 12.66 -6 13 C-6 12.34 -6 11.68 -6 11 C-5.04867188 10.64808594 -5.04867188 10.64808594 -4.078125 10.2890625 C-1.81749261 9.17709092 -1.81749261 9.17709092 -1.171875 6.8359375 C-0.96304687 5.61777344 -0.96304687 5.61777344 -0.75 4.375 C-0.5025 2.93125 -0.255 1.4875 0 0 Z " fill="#AF0203" transform="translate(296,221)"/>
<path d="M0 0 C0 0.66 0 1.32 0 2 C4.455 2.99 4.455 2.99 9 4 C9.042721 5.66611905 9.04063832 7.33382885 9 9 C8 10 8 10 4.4375 10.0625 C3.303125 10.041875 2.16875 10.02125 1 10 C0.34 7.69 -0.32 5.38 -1 3 C-1.928125 3.495 -2.85625 3.99 -3.8125 4.5 C-7 6 -7 6 -10 6 C-9.75 3.625 -9.75 3.625 -9 1 C-5.89666169 -1.43833725 -3.67370652 -1.02047403 0 0 Z " fill="#CA1311" transform="translate(168,196)"/>
<path d="M0 0 C0.33 0.66 0.66 1.32 1 2 C-0.15869315 4.56289751 -1.37369086 7.01814039 -2.6875 9.5 C-5.53322562 14.99700362 -8.12452758 20.43734589 -10.2109375 26.27734375 C-11 28 -11 28 -13 29 C-12.34 25.7 -11.68 22.4 -11 19 C-11.45375 19.825 -11.9075 20.65 -12.375 21.5 C-13.179375 22.7375 -13.179375 22.7375 -14 24 C-14.66 24 -15.32 24 -16 24 C-14.37656592 14.99918827 -5.62393096 6.86557805 0 0 Z " fill="#AE1011" transform="translate(321,148)"/>
<path d="M0 0 C4.07925705 3.05944279 5.68235794 5.63558743 7.8125 10.0625 C8.29879883 11.01866211 8.29879883 11.01866211 8.79492188 11.99414062 C9.59998286 13.63012109 10.30807875 15.31305001 11 17 C10.67 17.66 10.34 18.32 10 19 C6.47088777 17.23544389 5.70145028 12.97660188 4.21875 9.46875 C3.24544946 6.87103593 3.24544946 6.87103593 1 6 C1 21.18 1 36.36 1 52 C0.67 52 0.34 52 0 52 C0 34.84 0 17.68 0 0 Z " fill="#1B0000" transform="translate(169,222)"/>
<path d="M0 0 C0.33 0 0.66 0 1 0 C1 5.94 1 11.88 1 18 C-1.97 18 -4.94 18 -8 18 C-8 17.01 -8 16.02 -8 15 C-7.01 14.67 -6.02 14.34 -5 14 C-5 12.35 -5 10.7 -5 9 C-4.34 9 -3.68 9 -3 9 C-3 8.01 -3 7.02 -3 6 C-3.99 5.67 -4.98 5.34 -6 5 C-5.01 4.67 -4.02 4.34 -3 4 C-2.34 4.66 -1.68 5.32 -1 6 C-0.67 4.02 -0.34 2.04 0 0 Z " fill="#860506" transform="translate(246,255)"/>
<path d="M0 0 C4.03058115 1.83148557 6.67679852 3.92465822 9.5 7.3125 C4.75 5.4375 4.75 5.4375 2.5 4.3125 C2.5 3.6525 2.5 2.9925 2.5 2.3125 C-1.22915017 2.28337652 -4.9582709 2.26565963 -8.6875 2.25 C-9.74259766 2.24162109 -10.79769531 2.23324219 -11.88476562 2.22460938 C-12.90634766 2.22138672 -13.92792969 2.21816406 -14.98046875 2.21484375 C-15.91785889 2.20960693 -16.85524902 2.20437012 -17.82104492 2.19897461 C-20.48049477 2.31167343 -22.90920573 2.71873351 -25.5 3.3125 C-18.94673711 -3.89608918 -8.62080215 -3.1972044 0 0 Z " fill="#200000" transform="translate(377.5,199.6875)"/>
<path d="M0 0 C2.22053029 2.05448353 3.66213753 3.94818116 5.0078125 6.65234375 C5.35457031 7.34650391 5.70132813 8.04066406 6.05859375 8.75585938 C6.41050781 9.47580078 6.76242188 10.19574219 7.125 10.9375 C7.48464844 11.65357422 7.84429687 12.36964844 8.21484375 13.10742188 C9.84279498 16.39685892 11.20180247 19.40113562 12 23 C12.99 23 13.98 23 15 23 C15.12375 22.030625 15.2475 21.06125 15.375 20.0625 C15.58125 19.051875 15.7875 18.04125 16 17 C16.66 16.67 17.32 16.34 18 16 C18.3125 19.3125 18.3125 19.3125 18 23 C15.5 24.9375 15.5 24.9375 13 26 C10.76091394 23.93522832 9.34889034 22.05070842 8.02734375 19.3125 C7.68509766 18.61382812 7.34285156 17.91515625 6.99023438 17.1953125 C6.64283203 16.47085938 6.29542969 15.74640625 5.9375 15 C5.24007027 13.56163117 4.54091412 12.12409787 3.83984375 10.6875 C3.53425537 10.05199219 3.22866699 9.41648438 2.91381836 8.76171875 C1.90678217 6.74178461 1.90678217 6.74178461 0 4 C0 2.68 0 1.36 0 0 Z " fill="#8C090B" transform="translate(184,207)"/>
<path d="M0 0 C0.66 0.66 1.32 1.32 2 2 C3.98723268 2.70381157 5.98777953 3.3711811 8 4 C8.66 4.33 9.32 4.66 10 5 C10.33 4.34 10.66 3.68 11 3 C11.33 4.32 11.66 5.64 12 7 C13.32 7.33 14.64 7.66 16 8 C16.33 6.68 16.66 5.36 17 4 C17 5.98 17 7.96 17 10 C14.1875 10.1875 14.1875 10.1875 11 10 C10.5565625 9.4946875 10.113125 8.989375 9.65625 8.46875 C8.03209347 6.71154523 8.03209347 6.71154523 5.30078125 6.92578125 C4.31464844 7.05339844 3.32851562 7.18101562 2.3125 7.3125 C1.31863281 7.43238281 0.32476562 7.55226562 -0.69921875 7.67578125 C-1.45847656 7.78277344 -2.21773437 7.88976562 -3 8 C-2.45276317 4.62537285 -1.9451 2.91765 0 0 Z " fill="#EA6863" transform="translate(220,201)"/>
<path d="M0 0 C0.99 0.33 1.98 0.66 3 1 C3 1.66 3 2.32 3 3 C3.66 3 4.32 3 5 3 C6.625 4.1875 6.625 4.1875 8 6 C8.1875 8.6875 8.1875 8.6875 8 11 C7.236875 11.226875 6.47375 11.45375 5.6875 11.6875 C2.39769291 13.29414998 1.81773999 14.89469418 0 18 C-6.08133971 22.15311005 -6.08133971 22.15311005 -9.625 21.5625 C-10.40875 21.376875 -11.1925 21.19125 -12 21 C-11.67 20.34 -11.34 19.68 -11 19 C-10.10474609 18.77957031 -10.10474609 18.77957031 -9.19140625 18.5546875 C-6.56941929 17.89101166 -5.06867523 16.77573688 -2.9375 15.125 C-2.26589844 14.61195313 -1.59429687 14.09890625 -0.90234375 13.5703125 C1.01736153 12.04826873 1.01736153 12.04826873 2.62109375 10.3046875 C4 9 4 9 6 9 C5.21869929 6.50447516 5.21869929 6.50447516 4 4 C3.01 3.67 2.02 3.34 1 3 C0.67 2.01 0.34 1.02 0 0 Z " fill="#2C0101" transform="translate(399,188)"/>
<path d="M0 0 C0.33 0.99 0.66 1.98 1 3 C3.64 2.34 6.28 1.68 9 1 C9.99 2.65 10.98 4.3 12 6 C6.25 9 6.25 9 4 9 C4 9.66 4 10.32 4 11 C3.01 11 2.02 11 1 11 C0.67 7.37 0.34 3.74 0 0 Z " fill="#C81917" transform="translate(216,206)"/>
<path d="M0 0 C0.33 0 0.66 0 1 0 C1 1.65 1 3.3 1 5 C1.66 5 2.32 5 3 5 C3.33 4.34 3.66 3.68 4 3 C4.33 4.98 4.66 6.96 5 9 C3.68 9.33 2.36 9.66 1 10 C0.67 9.01 0.34 8.02 0 7 C-2.51083114 8.25541557 -2.87125446 9.50063488 -4 12 C-4.99 11.67 -5.98 11.34 -7 11 C-6.25 5.25 -6.25 5.25 -4 3 C-2.68 3 -1.36 3 0 3 C0 2.01 0 1.02 0 0 Z " fill="#CC2021" transform="translate(334,197)"/>
<path d="M0 0 C1.32 1.65 2.64 3.3 4 5 C2.88266271 6.50571657 1.75589965 8.00444292 0.625 9.5 C-0.00148438 10.3353125 -0.62796875 11.170625 -1.2734375 12.03125 C-1.84320313 12.6809375 -2.41296875 13.330625 -3 14 C-3.66 14 -4.32 14 -5 14 C-5 14.99 -5 15.98 -5 17 C-5.99 17 -6.98 17 -8 17 C-6.25 11.25 -6.25 11.25 -4 9 C-3.4297902 7.66587276 -2.91269425 6.30834833 -2.4375 4.9375 C-1.09722222 1.09722222 -1.09722222 1.09722222 0 0 Z " fill="#820202" transform="translate(263,270)"/>
<path d="M0 0 C0.66 0.66 1.32 1.32 2 2 C1.34 2.99 0.68 3.98 0 5 C-0.66 5 -1.32 5 -2 5 C-1.67 6.32 -1.34 7.64 -1 9 C-1.66 9 -2.32 9 -3 9 C-3 8.34 -3 7.68 -3 7 C-3.58007812 6.87882813 -4.16015625 6.75765625 -4.7578125 6.6328125 C-5.53898437 6.46523437 -6.32015625 6.29765625 -7.125 6.125 C-7.89070313 5.96257812 -8.65640625 5.80015625 -9.4453125 5.6328125 C-12 5 -12 5 -14.875 3.96875 C-18.27402179 2.91505324 -21.32812498 2.59215561 -24.875 2.375 C-26.02742188 2.30023438 -27.17984375 2.22546875 -28.3671875 2.1484375 C-29.67042969 2.07496094 -29.67042969 2.07496094 -31 2 C-31 1.67 -31 1.34 -31 1 C-28.60385874 0.94574774 -26.20896147 0.90620973 -23.8125 0.875 C-22.80219727 0.84986328 -22.80219727 0.84986328 -21.77148438 0.82421875 C-17.65379191 0.78404614 -14.74812432 1.38149177 -11 3 C-8.66055264 2.71269945 -6.3260857 2.38063221 -4 2 C-1.5625 2.4375 -1.5625 2.4375 0 3 C0 2.01 0 1.02 0 0 Z " fill="#B40909" transform="translate(390,196)"/>
<path d="M0 0 C6.6 0.33 13.2 0.66 20 1 C20 2.32 20 3.64 20 5 C19.34 5 18.68 5 18 5 C17.34 6.98 16.68 8.96 16 11 C14.7922442 7.37673261 15.45688872 6.35853631 17 3 C15.576875 3.2784375 15.576875 3.2784375 14.125 3.5625 C9.35520074 4.26768593 4.75075712 3.62132638 0 3 C0 2.01 0 1.02 0 0 Z " fill="#320200" transform="translate(256,235)"/>
<path d="M0 0 C0 0.66 0 1.32 0 2 C-1.2375 2.28875 -2.475 2.5775 -3.75 2.875 C-6.71156344 3.61932214 -9.40246951 4.33758049 -12 6 C-12.33 6.66 -12.66 7.32 -13 8 C-16.35723464 10.05164339 -19.27345083 11.75781694 -23 13 C-23 13.99 -23 14.98 -23 16 C-24.32 16.33 -25.64 16.66 -27 17 C-23.25509305 9.27612941 -15.84306854 4.06472846 -8 1 C-5.07554682 0.11345317 -3.17445008 0 0 0 Z " fill="#A20C0D" transform="translate(354,179)"/>
<path d="M0 0 C0.99 0 1.98 0 3 0 C7.09628009 4.89277899 7.09628009 4.89277899 6.75 8.875 C6.5025 9.57625 6.255 10.2775 6 11 C4.33388095 11.042721 2.66617115 11.04063832 1 11 C0 10 0 10 -0.09765625 7.71484375 C-0.08605469 6.79832031 -0.07445312 5.88179687 -0.0625 4.9375 C-0.05347656 4.01839844 -0.04445313 3.09929687 -0.03515625 2.15234375 C-0.02355469 1.44207031 -0.01195312 0.73179687 0 0 Z " fill="#D3514F" transform="translate(324,229)"/>
<path d="M0 0 C0.66 0 1.32 0 2 0 C1.69106068 1.6256807 1.3777305 3.25052748 1.0625 4.875 C0.88847656 5.77992188 0.71445312 6.68484375 0.53515625 7.6171875 C0 10 0 10 -1 12 C-1.15175549 13.59262066 -1.24900325 15.19064856 -1.31640625 16.7890625 C-1.35830078 17.73007813 -1.40019531 18.67109375 -1.44335938 19.640625 C-1.50233398 21.11789063 -1.50233398 21.11789063 -1.5625 22.625 C-1.60568359 23.61757812 -1.64886719 24.61015625 -1.69335938 25.6328125 C-1.79961069 28.08839838 -1.90164964 30.54408703 -2 33 C-2.33 33 -2.66 33 -3 33 C-4.14550205 28.43617437 -4.14891298 24.04600119 -4.125 19.375 C-4.12886719 18.611875 -4.13273437 17.84875 -4.13671875 17.0625 C-4.13097136 13.78648638 -4.04287441 11.12862324 -3 8 C-2.34 8 -1.68 8 -1 8 C-0.67 5.36 -0.34 2.72 0 0 Z " fill="#2C0000" transform="translate(319,204)"/>
<path d="M0 0 C7.97766199 -0.20426446 15.30339972 -0.18375762 23 2 C24.00546875 2.19916016 24.00546875 2.19916016 25.03125 2.40234375 C26.9375 2.8125 26.9375 2.8125 30 4 C31.4375 6.625 31.4375 6.625 32 9 C31.360625 8.731875 30.72125 8.46375 30.0625 8.1875 C26.08559767 6.64543583 22.05816877 5.31045033 18 4 C16.88625 3.62875 15.7725 3.2575 14.625 2.875 C9.78297967 1.70623647 4.96058961 1.34087234 0 1 C0 0.67 0 0.34 0 0 Z " fill="#3E0100" transform="translate(363,176)"/>
<path d="M0 0 C0.99 0.2165625 0.99 0.2165625 2 0.4375 C5.65599551 1.12299916 9.30622195 1.56175515 13 2 C12.67 3.32 12.34 4.64 12 6 C10.37536158 6.05395478 8.75021459 6.09277195 7.125 6.125 C6.22007812 6.14820313 5.31515625 6.17140625 4.3828125 6.1953125 C2 6 2 6 0 4 C0 2.68 0 1.36 0 0 Z " fill="#CA5B5C" transform="translate(336,256)"/>
<path d="M0 0 C0.33 0.66 0.66 1.32 1 2 C0.67 2.66 0.34 3.32 0 4 C0.99 3.67 1.98 3.34 3 3 C1.66666667 5.66666667 0.33333333 8.33333333 -1 11 C-1.66 11 -2.32 11 -3 11 C-3.2475 11.5775 -3.495 12.155 -3.75 12.75 C-5.16683317 15.3002997 -6.87627537 17.01785701 -9 19 C-7.8966641 14.5866564 -6.7782434 11.55615155 -4 8 C-2.92229666 5.69647296 -1.97536179 3.34973522 -1 1 C-0.67 0.67 -0.34 0.34 0 0 Z " fill="#530709" transform="translate(253,287)"/>
<path d="M0 0 C1.65 0.33 3.3 0.66 5 1 C5.33 3.97 5.66 6.94 6 10 C5.67 9.34 5.34 8.68 5 8 C4.071875 8.061875 3.14375 8.12375 2.1875 8.1875 C-1 8 -1 8 -2.875 6.5 C-3.24625 6.005 -3.6175 5.51 -4 5 C-3.34 4.01 -2.68 3.02 -2 2 C-1.34 2 -0.68 2 0 2 C0 1.34 0 0.68 0 0 Z " fill="#C80504" transform="translate(172,192)"/>
<path d="M0 0 C0 4.96922647 -3.07085122 8.04702689 -6.4375 11.5 C-7.283125 12.325 -8.12875 13.15 -9 14 C-10.71047633 15.96751512 -12.3538615 17.97760127 -14 20 C-15 18 -15 18 -14.375 15.625 C-12.73548526 12.49501731 -10.80374653 11.1028099 -8 9 C-7.34 8.01 -6.68 7.02 -6 6 C-5.34 6 -4.68 6 -4 6 C-3.896875 5.38125 -3.79375 4.7625 -3.6875 4.125 C-3 2 -3 2 0 0 Z " fill="#90080C" transform="translate(307,222)"/>
<path d="M0 0 C7.59 0 15.18 0 23 0 C22.67 0.66 22.34 1.32 22 2 C15.73 2 9.46 2 3 2 C1.414131 5.171738 1.62133555 8.63513822 1.4375 12.125 C1.39431641 12.87910156 1.35113281 13.63320312 1.30664062 14.41015625 C1.2005168 16.27321888 1.09974999 18.13658524 1 20 C0.67 20 0.34 20 0 20 C0 13.4 0 6.8 0 0 Z " fill="#C20809" transform="translate(147,180)"/>
<path d="M0 0 C3.63 0 7.26 0 11 0 C10.67 0.99 10.34 1.98 10 3 C9.34 2.67 8.68 2.34 8 2 C8 3.32 8 4.64 8 6 C5.69 5.67 3.38 5.34 1 5 C0.67 3.35 0.34 1.7 0 0 Z " fill="#EE847D" transform="translate(355,184)"/>
<path d="M0 0 C1.98 0 3.96 0 6 0 C6 3.11227195 5.54372951 5.94152152 5 9 C4.01 9 3.02 9 2 9 C2 8.34 2 7.68 2 7 C1.01 7 0.02 7 -1 7 C-0.67 4.69 -0.34 2.38 0 0 Z " fill="#C41F1E" transform="translate(290,221)"/>
<path d="M0 0 C-0.33 3.3 -0.66 6.6 -1 10 C-1.99 10 -2.98 10 -4 10 C-4 11.32 -4 12.64 -4 14 C-4.66 14 -5.32 14 -6 14 C-6.625 11.1875 -6.625 11.1875 -7 8 C-6.34 7.01 -5.68 6.02 -5 5 C-4.67 4.29875 -4.34 3.5975 -4 2.875 C-2.98986319 0.98099348 -2.29904617 0 0 0 Z " fill="#CB0406" transform="translate(305,178)"/>
<path d="M0 0 C0.33 0 0.66 0 1 0 C1.33 1.98 1.66 3.96 2 6 C1.38125 6.165 0.7625 6.33 0.125 6.5 C-2.73285235 8.51730754 -2.76634218 10.58595924 -3.4296875 13.890625 C-4.30494451 17.12787694 -6.0001536 19.33353813 -8 22 C-8.33 21.34 -8.66 20.68 -9 20 C-8.28735352 17.93701172 -8.28735352 17.93701172 -7.12890625 15.4296875 C-6.51499023 14.08583984 -6.51499023 14.08583984 -5.88867188 12.71484375 C-5.45103516 11.77769531 -5.01339844 10.84054688 -4.5625 9.875 C-3.9118457 8.45767578 -3.9118457 8.45767578 -3.24804688 7.01171875 C-2.1723338 4.67115623 -1.08940487 2.33421339 0 0 Z " fill="#300101" transform="translate(316,160)"/>
<path d="M0 0 C7.26 0 14.52 0 22 0 C22 0.66 22 1.32 22 2 C18.89738494 2.25494218 15.79325198 2.47447008 12.6875 2.6875 C11.36588867 2.79674805 11.36588867 2.79674805 10.01757812 2.90820312 C9.17001953 2.96298828 8.32246094 3.01777344 7.44921875 3.07421875 C6.66893311 3.13182373 5.88864746 3.18942871 5.0847168 3.2487793 C3 3 3 3 0 0 Z " fill="#230000" transform="translate(226,274)"/>
<path d="M0 0 C2.64892779 0.38006355 3.80532155 0.80085645 5.703125 2.7421875 C6.21359375 3.44601563 6.7240625 4.14984375 7.25 4.875 C8.03117187 5.92300781 8.03117187 5.92300781 8.828125 6.9921875 C10 9 10 9 10 12 C8.68 12 7.36 12 6 12 C5.896875 11.38125 5.79375 10.7625 5.6875 10.125 C5.12474627 7.63473516 5.12474627 7.63473516 2 6 C0.8125 2.875 0.8125 2.875 0 0 Z " fill="#E0302D" transform="translate(380,187)"/>
<path d="M0 0 C0.66 0 1.32 0 2 0 C0.25192871 5.46737191 -1.65794081 10.75824848 -4 16 C-4.99 16 -5.98 16 -7 16 C-7.69710731 14.71349294 -8.38242876 13.42059335 -9.0625 12.125 C-9.44535156 11.40570313 -9.82820312 10.68640625 -10.22265625 9.9453125 C-10.60744141 8.98238281 -10.60744141 8.98238281 -11 8 C-10.67 7.34 -10.34 6.68 -10 6 C-7 10.75 -7 10.75 -7 13 C-6.34 13 -5.68 13 -5 13 C-4.855625 12.4225 -4.71125 11.845 -4.5625 11.25 C-3.78125 8.125 -3.78125 8.125 -3 5 C-2.34 5 -1.68 5 -1 5 C-0.67 3.35 -0.34 1.7 0 0 Z " fill="#270000" transform="translate(203,214)"/>
<path d="M0 0 C1.32 0.33 2.64 0.66 4 1 C3.505 1.9075 3.01 2.815 2.5 3.75 C0.72062788 7.00873038 0.72062788 7.00873038 1 11 C-0.65 10.67 -2.3 10.34 -4 10 C-3.43454163 6.04179141 -2.19097652 3.3340947 0 0 Z " fill="#B42121" transform="translate(159,240)"/>
<path d="M0 0 C0.17273438 0.63421875 0.34546875 1.2684375 0.5234375 1.921875 C1.93168189 4.38710015 1.93168189 4.38710015 5.4765625 4.828125 C6.85734582 4.98744615 8.2404743 5.12738518 9.625 5.25 C10.68460937 5.36601562 10.68460937 5.36601562 11.765625 5.484375 C13.5087053 5.67281611 15.25420924 5.83858869 17 6 C17 6.33 17 6.66 17 7 C10.73 7 4.46 7 -2 7 C-1 2 -1 2 0 0 Z " fill="#260001" transform="translate(292,212)"/>
<path d="M0 0 C1.32 0 2.64 0 4 0 C4 0.66 4 1.32 4 2 C4.99 2 5.98 2 7 2 C7 2.99 7 3.98 7 5 C5.68 4.67 4.36 4.34 3 4 C3 3.01 3 2.02 3 1 C2.34 1 1.68 1 1 1 C0.67 1.66 0.34 2.32 0 3 C0 2.01 0 1.02 0 0 Z M-2 3 C-1.34 3 -0.68 3 0 3 C-0.66 5.31 -1.32 7.62 -2 10 C-0.68 10 0.64 10 2 10 C2 10.99 2 11.98 2 13 C0.68 13 -0.64 13 -2 13 C-2 12.34 -2 11.68 -2 11 C-2.99 10.67 -3.98 10.34 -5 10 C-4.01 7.69 -3.02 5.38 -2 3 Z " fill="#DA1A1A" transform="translate(370,179)"/>
<path d="M0 0 C9.14034937 0.47449901 17.99592496 1.2729614 27 3 C27 3.33 27 3.66 27 4 C17.49232119 4.322092 9.09743079 4.23806859 0 1 C0 0.67 0 0.34 0 0 Z " fill="#5F0407" transform="translate(346,272)"/>
<path d="M0 0 C0.33 0 0.66 0 1 0 C1.08806088 4.05080042 0.90868895 7.85663612 0.375 11.875 C-0.1892082 16.91422943 0.58661214 21.16411097 2 26 C-1.30121745 22.69878255 -1.91923926 19.06651686 -2.265625 14.4921875 C-2.26046875 13.29851562 -2.2553125 12.10484375 -2.25 10.875 C-2.25515625 9.67617187 -2.2603125 8.47734375 -2.265625 7.2421875 C-2.0177204 4.21629313 -1.59019672 2.53674239 0 0 Z " fill="#2F0100" transform="translate(342,214)"/>
<path d="M0 0 C4.09945411 2.46330834 5.80280683 5.88590722 7.8125 10.0625 C8.29879883 11.01866211 8.29879883 11.01866211 8.79492188 11.99414062 C9.59998286 13.63012109 10.30807875 15.31305001 11 17 C10.67 17.66 10.34 18.32 10 19 C6.51151243 17.25575622 5.77728408 13.13536468 4.31640625 9.6640625 C3.18611869 6.99917926 3.18611869 6.99917926 1.33984375 5.3984375 C0 4 0 4 0 0 Z " fill="#2C0001" transform="translate(169,222)"/>
<path d="M0 0 C0.99 0 1.98 0 3 0 C3 0.66 3 1.32 3 2 C3.99 2.33 4.98 2.66 6 3 C6 4.32 6 5.64 6 7 C3.29120665 8.35439668 0.99066732 8.06501451 -2 8 C-2 7.34 -2 6.68 -2 6 C-1.01 6 -0.02 6 1 6 C0.67 4.02 0.34 2.04 0 0 Z " fill="#D9504E" transform="translate(271,223)"/>
<path d="M0 0 C1.98 0.495 1.98 0.495 4 1 C4 3.31 4 5.62 4 8 C2.35 8.33 0.7 8.66 -1 9 C-0.67 6.03 -0.34 3.06 0 0 Z " fill="#EC625F" transform="translate(152,204)"/>
<path d="M0 0 C3.65316671 1.24976756 4.78065836 1.67098753 7 5 C6.34 5 5.68 5 5 5 C5 6.65 5 8.3 5 10 C4.01 10 3.02 10 2 10 C1.87625 9.030625 1.7525 8.06125 1.625 7.0625 C1.41875 6.051875 1.2125 5.04125 1 4 C0.34 3.67 -0.32 3.34 -1 3 C-0.67 2.01 -0.34 1.02 0 0 Z " fill="#9A181B" transform="translate(392,246)"/>
<path d="M0 0 C0.33 0.99 0.66 1.98 1 3 C0.505 3.804375 0.01 4.60875 -0.5 5.4375 C-2.26274671 7.84522721 -2.26274671 7.84522721 -1.6875 10.3125 C-1.460625 10.869375 -1.23375 11.42625 -1 12 C-2.98 12 -4.96 12 -7 12 C-5.44298069 7.32894208 -2.91552627 3.91294315 0 0 Z " fill="#AE090B" transform="translate(300,176)"/>
<path d="M0 0 C1.71872783 2.57809175 3.03410546 5.03249253 4.375 7.8125 C6.33236718 11.77950826 8.44016146 15.39726427 11 19 C10.67 19.66 10.34 20.32 10 21 C5.26609712 15.86033402 0.21405767 9.39735621 -0.13671875 2.19140625 C-0.09160156 1.46824219 -0.04648437 0.74507812 0 0 Z " fill="#79080C" transform="translate(319,239)"/>
<path d="M0 0 C0.66 0 1.32 0 2 0 C1.34 3.3 0.68 6.6 0 10 C-1.32 10 -2.64 10 -4 10 C-3.43697042 6.05879291 -2.3208055 3.2491277 0 0 Z " fill="#F77B78" transform="translate(296,189)"/>
<path d="M0 0 C0.25 5.625 0.25 5.625 -2 9 C-2.66 9 -3.32 9 -4 9 C-4 8.01 -4 7.02 -4 6 C-5.32 6.99 -6.64 7.98 -8 9 C-8 8.01 -8 7.02 -8 6 C-7.34 5.67 -6.68 5.34 -6 5 C-5.67 4.34 -5.34 3.68 -5 3 C-3.7124791 0.4249582 -2.85933002 0 0 0 Z " fill="#270304" transform="translate(324,145)"/>
<path d="M0 0 C-0.5 1.875 -0.5 1.875 -2 4 C-8.57893473 6.43664249 -15.05447955 6.20836561 -22 6 C-22 5.67 -22 5.34 -22 5 C-21.31035156 4.97421875 -20.62070312 4.9484375 -19.91015625 4.921875 C-13.86809752 4.55719656 -9.18427831 3.58730959 -3.77734375 0.83984375 C-2 0 -2 0 0 0 Z " fill="#740709" transform="translate(384,249)"/>
<path d="M0 0 C0.99 0.33 1.98 0.66 3 1 C3 3.31 3 5.62 3 8 C1.35 7.67 -0.3 7.34 -2 7 C-2.125 4.625 -2.125 4.625 -2 2 C-1.34 1.34 -0.68 0.68 0 0 Z " fill="#B12423" transform="translate(155,253)"/>
<path d="M0 0 C2.68554852 0.47392033 5.12623304 1.04697043 7.6875 2 C12.08427527 3.32732838 16.43458729 3.65714292 21 4 C21 4.33 21 4.66 21 5 C18.62374823 5.10883596 16.25256024 5.18766696 13.875 5.25 C13.20984375 5.28351563 12.5446875 5.31703125 11.859375 5.3515625 C6.52193863 5.45621812 3.99840195 4.26349318 0 1 C0 0.67 0 0.34 0 0 Z " fill="#350101" transform="translate(352,249)"/>
<path d="M0 0 C0.33 2.31 0.66 4.62 1 7 C-1.31 6.67 -3.62 6.34 -6 6 C-5.6875 4.125 -5.6875 4.125 -5 2 C-2 0 -2 0 0 0 Z " fill="#DB5B5A" transform="translate(242,240)"/>
<path d="M0 0 C1.75570313 0.02707031 1.75570313 0.02707031 3.546875 0.0546875 C4.88492187 0.08949219 4.88492187 0.08949219 6.25 0.125 C6.25 0.455 6.25 0.785 6.25 1.125 C5.074375 1.24875 3.89875 1.3725 2.6875 1.5 C-1.26707225 1.98908137 -4.93214878 2.97244114 -8.75 4.125 C-10.41246041 4.47871498 -12.07774271 4.82095322 -13.75 5.125 C-9.55881189 0.51469307 -6.17965765 -0.12359315 0 0 Z " fill="#420201" transform="translate(365.75,197.875)"/>
<path d="M0 0 C0.95465783 2.16967689 1.14401212 3.56328793 0.3984375 5.82421875 C-0.35870385 7.5684743 -1.17609198 9.28627131 -2 11 C-2.99 11 -3.98 11 -5 11 C-5 9.35 -5 7.7 -5 6 C-4.34 6 -3.68 6 -3 6 C-2.690625 5.195625 -2.38125 4.39125 -2.0625 3.5625 C-1 1 -1 1 0 0 Z " fill="#CD0604" transform="translate(310,166)"/>
<path d="M0 0 C0.33 0 0.66 0 1 0 C1 3.3 1 6.6 1 10 C0.01 10.33 -0.98 10.66 -2 11 C-2.33 11.99 -2.66 12.98 -3 14 C-3 11.03 -3 8.06 -3 5 C-2.34 4.67 -1.68 4.34 -1 4 C-0.34786708 1.97536745 -0.34786708 1.97536745 0 0 Z " fill="#9F0505" transform="translate(246,233)"/>
<path d="M0 0 C0.33 0.66 0.66 1.32 1 2 C1.66 2 2.32 2 3 2 C3.33 1.34 3.66 0.68 4 0 C4 0.99 4 1.98 4 3 C1.69 3.66 -0.62 4.32 -3 5 C-3 5.66 -3 6.32 -3 7 C-3.99 7 -4.98 7 -6 7 C-6 6.01 -6 5.02 -6 4 C-5.34 4 -4.68 4 -4 4 C-3.67 3.01 -3.34 2.02 -3 1 C-2.01 0.67 -1.02 0.34 0 0 Z " fill="#C70F0E" transform="translate(223,210)"/>
<path d="M0 0 C0.99 0 1.98 0 3 0 C2.01 2.97 1.02 5.94 0 9 C-0.99 8.67 -1.98 8.34 -3 8 C-2.25 2.25 -2.25 2.25 0 0 Z " fill="#F16969" transform="translate(330,200)"/>
<path d="M0 0 C0.2475 0.639375 0.495 1.27875 0.75 1.9375 C1.81562433 4.18741541 1.81562433 4.18741541 4.125 4.75 C4.74375 4.8325 5.3625 4.915 6 5 C6.33 3.68 6.66 2.36 7 1 C7 2.98 7 4.96 7 7 C1.43820225 7.37078652 1.43820225 7.37078652 -0.625 5.625 C-1.07875 5.08875 -1.5325 4.5525 -2 4 C-4.09989652 2.82425289 -4.09989652 2.82425289 -6 2 C-4.02 2 -2.04 2 0 2 C0 1.34 0 0.68 0 0 Z " fill="#E2514C" transform="translate(230,204)"/>
<path d="M0 0 C5.28 0 10.56 0 16 0 C16.33 2.31 16.66 4.62 17 7 C16.731875 6.360625 16.46375 5.72125 16.1875 5.0625 C15.11332248 2.66868314 15.11332248 2.66868314 12 2 C10.48138245 1.90796257 8.95889574 1.86998716 7.4375 1.875 C6.65246094 1.87242187 5.86742187 1.86984375 5.05859375 1.8671875 C2.93561023 1.87023634 2.93561023 1.87023634 1 3 C0.67 2.01 0.34 1.02 0 0 Z " fill="#C61B1A" transform="translate(220,198)"/>
<path d="M0 0 C0 6.28456712 -6.00776122 11.50207764 -10 16 C-10.33 15.34 -10.66 14.68 -11 14 C-7.375 8.25 -7.375 8.25 -4 6 C-2.9590934 4.35857037 -1.95495674 2.69287785 -1 1 C-0.67 0.67 -0.34 0.34 0 0 Z " fill="#190000" transform="translate(263,282)"/>
<path d="M0 0 C0.66 0 1.32 0 2 0 C0.43181728 5.452999 -1.03810217 9.76486783 -5 14 C-5 12.35 -5 10.7 -5 9 C-4.34 9 -3.68 9 -3 9 C-2.67 6.69 -2.34 4.38 -2 2 C-1.34 2 -0.68 2 0 2 C0 1.34 0 0.68 0 0 Z " fill="#230000" transform="translate(266,254)"/>
<path d="M0 0 C0.33 0.66 0.66 1.32 1 2 C-0.21484375 4.8203125 -0.21484375 4.8203125 -1.9375 8.125 C-2.50339844 9.22070312 -3.06929688 10.31640625 -3.65234375 11.4453125 C-4.09707031 12.28835937 -4.54179687 13.13140625 -5 14 C-6.03515625 12.1171875 -6.03515625 12.1171875 -7 10 C-5.82505696 6.08352319 -2.62630649 3.04098647 0 0 Z " fill="#8E1619" transform="translate(321,148)"/>
<path d="M0 0 C3.16417672 1.53773074 6.2132349 3.22411398 9.25 5 C10.14203125 5.515625 11.0340625 6.03125 11.953125 6.5625 C12.96632813 7.2740625 12.96632813 7.2740625 14 8 C14 8.66 14 9.32 14 10 C8.03868848 8.65870491 4.19807984 5.25135496 0 1 C0 0.67 0 0.34 0 0 Z " fill="#630508" transform="translate(332,262)"/>
<path d="M0 0 C1.32 0.33 2.64 0.66 4 1 C2.35 4.63 0.7 8.26 -1 12 C-2.09658936 8.71023192 -1.79953138 7.28696233 -1 4 C-1.66 3.67 -2.32 3.34 -3 3 C-2.01 3 -1.02 3 0 3 C0 2.01 0 1.02 0 0 Z " fill="#A60E0E" transform="translate(296,196)"/>
<path d="M0 0 C0.99 0 1.98 0 3 0 C3 2.64 3 5.28 3 8 C1.68 8 0.36 8 -1 8 C-1.04241723 5.66705225 -1.04092937 3.33297433 -1 1 C-0.67 0.67 -0.34 0.34 0 0 Z " fill="#D95656" transform="translate(189,236)"/>
<path d="M0 0 C0 1.65 0 3.3 0 5 C-2.31 5 -4.62 5 -7 5 C-7 4.01 -7 3.02 -7 2 C-4.35261084 0.5393715 -3.10551666 0 0 0 Z " fill="#EE6361" transform="translate(176,201)"/>
<path d="M0 0 C1.43861294 0.08746284 2.87597508 0.19565348 4.3125 0.3125 C5.11300781 0.37050781 5.91351563 0.42851562 6.73828125 0.48828125 C9.41986625 1.09499565 10.3353373 1.84362154 12 4 C12.33 4.99 12.66 5.98 13 7 C8.50202887 5.31326082 4.27113698 3.18326108 0 1 C0 0.67 0 0.34 0 0 Z " fill="#2D0001" transform="translate(382,178)"/>
<path d="M0 0 C2.475 0.99 2.475 0.99 5 2 C5 3.32 5 4.64 5 6 C3.35 6.33 1.7 6.66 0 7 C0 4.69 0 2.38 0 0 Z " fill="#B42C28" transform="translate(278,245)"/>
<path d="M0 0 C0.33 0.66 0.66 1.32 1 2 C0.67 2.66 0.34 3.32 0 4 C5.28 4 10.56 4 16 4 C16 4.33 16 4.66 16 5 C9.73 5 3.46 5 -3 5 C-1 1 -1 1 0 0 Z " fill="#870C0C" transform="translate(260,231)"/>
<path d="M0 0 C1.17781058 3.68065805 1 7.1644081 1 11 C1.33 11.99 1.66 12.98 2 14 C1.01 14.99 0.02 15.98 -1 17 C-1.02684679 14.35409986 -1.04676357 11.70846904 -1.0625 9.0625 C-1.07087891 8.30775391 -1.07925781 7.55300781 -1.08789062 6.77539062 C-1.09652441 4.85005687 -1.05224333 2.92464419 -1 1 C-0.67 0.67 -0.34 0.34 0 0 Z " fill="#9E0706" transform="translate(148,228)"/>
<path d="M0 0 C1.65 0 3.3 0 5 0 C5 0.66 5 1.32 5 2 C5.99 2.33 6.98 2.66 8 3 C7.01 4.485 7.01 4.485 6 6 C5.34 4.68 4.68 3.36 4 2 C3.01 2 2.02 2 1 2 C1 5.3 1 8.6 1 12 C0.67 12 0.34 12 0 12 C0 8.04 0 4.08 0 0 Z " fill="#AC0C12" transform="translate(323,227)"/>
<path d="M0 0 C0.99 0.33 1.98 0.66 3 1 C3 2.65 3 4.3 3 6 C1.35 6 -0.3 6 -2 6 C-2.33 4.68 -2.66 3.36 -3 2 C-2.01 2 -1.02 2 0 2 C0 1.34 0 0.68 0 0 Z " fill="#C72322" transform="translate(322,218)"/>
<path d="M0 0 C2 2 2 2 2.125 5.125 C2.08375 6.07375 2.0425 7.0225 2 8 C0.35 7.67 -1.3 7.34 -3 7 C-2.38722388 4.03824877 -1.74627478 2.61941217 0 0 Z " fill="#E56963" transform="translate(234,201)"/>
<path d="M0 0 C4.455 0.99 4.455 0.99 9 2 C9 3.65 9 5.3 9 7 C8.67 5.68 8.34 4.36 8 3 C7.4225 3.350625 6.845 3.70125 6.25 4.0625 C3.64198224 5.14917407 2.60582371 4.93065133 0 4 C0 2.68 0 1.36 0 0 Z " fill="#CD191E" transform="translate(168,198)"/>
<path d="M0 0 C4.43601966 3.51822249 5.52033129 7.75390186 7 13 C4.15589466 10.25368625 2.02162092 7.41584225 0 4 C0 2.68 0 1.36 0 0 Z " fill="#940B0B" transform="translate(177,194)"/>
<path d="M0 0 C0.33 0.66 0.66 1.32 1 2 C-0.36328125 4.8203125 -0.36328125 4.8203125 -2.3125 8.125 C-2.94800781 9.22070312 -3.58351563 10.31640625 -4.23828125 11.4453125 C-4.81964844 12.28835937 -5.40101563 13.13140625 -6 14 C-6.66 14 -7.32 14 -8 14 C-7.37606349 10.23880524 -5.65226285 7.81039958 -3.4375 4.75 C-2.79683594 3.85796875 -2.15617187 2.9659375 -1.49609375 2.046875 C-0.75552734 1.03367188 -0.75552734 1.03367188 0 0 Z " fill="#A10D10" transform="translate(313,158)"/>
<path d="M0 0 C0.99 0.33 1.98 0.66 3 1 C3 2.65 3 4.3 3 6 C1.68 6.33 0.36 6.66 -1 7 C-1.04254356 5.00045254 -1.04080783 2.99958364 -1 1 C-0.67 0.67 -0.34 0.34 0 0 Z " fill="#DC5A52" transform="translate(153,235)"/>
<path d="M0 0 C0.66 0 1.32 0 2 0 C0.43181728 5.452999 -1.03810217 9.76486783 -5 14 C-4.46515599 8.65155992 -2.53309233 4.64203897 0 0 Z " fill="#8B090B" transform="translate(221,222)"/>
<path d="M0 0 C0.99 0 1.98 0 3 0 C3 0.99 3 1.98 3 3 C2.34 3 1.68 3 1 3 C1 4.65 1 6.3 1 8 C0.01 8 -0.98 8 -2 8 C-2 6.35 -2 4.7 -2 3 C-1.34 3 -0.68 3 0 3 C0 2.01 0 1.02 0 0 Z " fill="#B33634" transform="translate(240,261)"/>
<path d="M0 0 C0.33 0.66 0.66 1.32 1 2 C-0.89732848 6.11087838 -3.0054207 7.94872955 -7 10 C-5.33248852 6.05860922 -2.77289351 3.2107188 0 0 Z " fill="#230000" transform="translate(287,250)"/>
<path d="M0 0 C0.66 0.33 1.32 0.66 2 1 C-3.0022779 9.6309795 -3.0022779 9.6309795 -7 12 C-5.84826645 9.53199953 -4.95216435 7.95216435 -3 6 C-2.835 5.154375 -2.67 4.30875 -2.5 3.4375 C-2.335 2.633125 -2.17 1.82875 -2 1 C-1.34 0.67 -0.68 0.34 0 0 Z " fill="#400201" transform="translate(279,202)"/>
<path d="M0 0 C0.33 0 0.66 0 1 0 C1.32813094 4.70321007 0.68305541 7.13640021 -2 11 C-2.33 11.66 -2.66 12.32 -3 13 C-3.66 13 -4.32 13 -5 13 C-4.54554036 11.58208592 -4.08625056 10.16571954 -3.625 8.75 C-3.24214844 7.56664062 -3.24214844 7.56664062 -2.8515625 6.359375 C-2.04826333 4.13372042 -1.10288338 2.09068328 0 0 Z " fill="#2E0000" transform="translate(298,199)"/>
<path d="M0 0 C0.99 0.33 1.98 0.66 3 1 C3 3.64 3 6.28 3 9 C2.34 9 1.68 9 1 9 C1 8.01 1 7.02 1 6 C0.34 6 -0.32 6 -1 6 C-1.042721 4.33388095 -1.04063832 2.66617115 -1 1 C-0.67 0.67 -0.34 0.34 0 0 Z " fill="#C20C0A" transform="translate(325,200)"/>
<path d="M0 0 C1.32 0.33 2.64 0.66 4 1 C4 2.65 4 4.3 4 6 C4.66 6 5.32 6 6 6 C6.33 7.98 6.66 9.96 7 12 C4.47740939 10.02579865 4.0070192 9.03254358 3.3125 5.8125 C3.209375 4.884375 3.10625 3.95625 3 3 C2.34 3 1.68 3 1 3 C0.67 2.01 0.34 1.02 0 0 Z " fill="#3D0101" transform="translate(170,179)"/>
<path d="M0 0 C2.31 0.33 4.62 0.66 7 1 C5.68 2.32 4.36 3.64 3 5 C2.01 4.34 1.02 3.68 0 3 C0 2.01 0 1.02 0 0 Z " fill="#8F1C1B" transform="translate(264,270)"/>
<path d="M0 0 C0.66 0 1.32 0 2 0 C0.5140084 4.59306496 -1.85014682 7.43569245 -5 11 C-5.8125 9.3125 -5.8125 9.3125 -6 7 C-3.625 4.375 -3.625 4.375 -1 2 C-0.67 1.34 -0.34 0.68 0 0 Z " fill="#7D090C" transform="translate(290,242)"/>
<path d="M0 0 C1.32 0.33 2.64 0.66 4 1 C3.05016642 2.50539661 2.08988109 4.00420347 1.125 5.5 C0.59132813 6.3353125 0.05765625 7.170625 -0.4921875 8.03125 C-0.98976563 8.6809375 -1.48734375 9.330625 -2 10 C-2.66 10 -3.32 10 -4 10 C-4 9.01 -4 8.02 -4 7 C-3.34 7 -2.68 7 -2 7 C-2 6.01 -2 5.02 -2 4 C-1.34 4 -0.68 4 0 4 C0 2.68 0 1.36 0 0 Z " fill="#2F0000" transform="translate(295,178)"/>
<path d="M0 0 C1.65 0 3.3 0 5 0 C5.33 0.99 5.66 1.98 6 3 C1.25 4.125 1.25 4.125 -1 3 C-0.67 2.01 -0.34 1.02 0 0 Z " fill="#EB867F" transform="translate(225,199)"/>
<path d="M0 0 C0 0.99 0 1.98 0 3 C-0.66 3 -1.32 3 -2 3 C-2.33 3.99 -2.66 4.98 -3 6 C-6 2.25 -6 2.25 -6 0 C-3.50907189 -1.24546405 -2.58919267 -0.7767578 0 0 Z " fill="#D71917" transform="translate(389,186)"/>
<path d="M0 0 C1.32 0.33 2.64 0.66 4 1 C4.33 2.32 4.66 3.64 5 5 C3.35 4.67 1.7 4.34 0 4 C0 2.68 0 1.36 0 0 Z " fill="#CF5B5B" transform="translate(353,265)"/>
<path d="M0 0 C0.99 0.33 1.98 0.66 3 1 C3.36630156 4.93774177 3.30233203 6.56539771 1 9.875 C0.34 10.57625 -0.32 11.2775 -1 12 C-1.66 11.67 -2.32 11.34 -3 11 C-1.9790625 9.948125 -1.9790625 9.948125 -0.9375 8.875 C1.35289652 6.1170551 1.35289652 6.1170551 0.75 2.6875 C0.5025 1.800625 0.255 0.91375 0 0 Z " fill="#290101" transform="translate(403,252)"/>
<path d="M0 0 C2.86724686 0.57344937 3.8614515 0.8614515 6 3 C8.57061311 3.64767793 8.57061311 3.64767793 11 4 C11 4.33 11 4.66 11 5 C4.61764706 5.49095023 4.61764706 5.49095023 1.5625 3.0625 C0 1 0 1 0 0 Z " fill="#B90B0B" transform="translate(225,207)"/>
<path d="M0 0 C0.66 0 1.32 0 2 0 C2.33 2.31 2.66 4.62 3 7 C1.68 6.34 0.36 5.68 -1 5 C-0.67 3.35 -0.34 1.7 0 0 Z " fill="#C70F11" transform="translate(282,203)"/>
<path d="M0 0 C0 3.62453269 -0.92469613 5.07920195 -3 8 C-3.99 8.33 -4.98 8.66 -6 9 C-4.68775452 5.06326356 -3.08089673 2.77280706 0 0 Z " fill="#2D0000" transform="translate(277,263)"/>
<path d="M0 0 C1.5625 1.75 1.5625 1.75 3 4 C2.6875 6.25 2.6875 6.25 2 8 C-0.97 7.505 -0.97 7.505 -4 7 C-3.01 6.34 -2.02 5.68 -1 5 C-0.27034634 2.43717258 -0.27034634 2.43717258 0 0 Z " fill="#A30A0A" transform="translate(156,236)"/>
<path d="M0 0 C1.98 0.99 1.98 0.99 4 2 C3.67 3.32 3.34 4.64 3 6 C2.01 6 1.02 6 0 6 C0 4.02 0 2.04 0 0 Z " fill="#E47B77" transform="translate(325,230)"/>
<path d="M0 0 C0.66 0 1.32 0 2 0 C0.34832443 3.5786304 -1.78286492 6.74820188 -4 10 C-4.33 8.68 -4.66 7.36 -5 6 C-4.34 6 -3.68 6 -3 6 C-2.67 4.68 -2.34 3.36 -2 2 C-1.34 2 -0.68 2 0 2 C0 1.34 0 0.68 0 0 Z " fill="#280000" transform="translate(270,214)"/>
<path d="M0 0 C0.33 0.66 0.66 1.32 1 2 C1.66 2 2.32 2 3 2 C3.66 4.64 4.32 7.28 5 10 C4.34 10 3.68 10 3 10 C0 3.375 0 3.375 0 0 Z " fill="#AC0C0E" transform="translate(170,180)"/>
<path d="M0 0 C2.86724686 0.57344937 3.8614515 0.8614515 6 3 C6 3.99 6 4.98 6 6 C3.37812506 4.95125002 2.20628639 4.35068687 0.75 1.875 C0.5025 1.25625 0.255 0.6375 0 0 Z " fill="#F5615A" transform="translate(380,187)"/>
<path d="M0 0 C1.32 0.66 2.64 1.32 4 2 C2.9375 3.5 2.9375 3.5 1 5 C-2.6875 5.1875 -2.6875 5.1875 -6 5 C-6.33 4.34 -6.66 3.68 -7 3 C-4.69 3.33 -2.38 3.66 0 4 C0 2.68 0 1.36 0 0 Z " fill="#EF645F" transform="translate(363,186)"/>
<path d="M0 0 C0.66 0.33 1.32 0.66 2 1 C1.67 1.66 1.34 2.32 1 3 C1.99 3 2.98 3 4 3 C4 3.99 4 4.98 4 6 C2.68 6 1.36 6 0 6 C0 5.34 0 4.68 0 4 C-0.66 3.67 -1.32 3.34 -2 3 C-1.34 2.01 -0.68 1.02 0 0 Z " fill="#D81313" transform="translate(342,184)"/>
<path d="M0 0 C1.32 0 2.64 0 4 0 C4 1.32 4 2.64 4 4 C2.35 4 0.7 4 -1 4 C-0.67 2.68 -0.34 1.36 0 0 Z " fill="#CD544F" transform="translate(377,259)"/>
<path d="M0 0 C-1.28519565 2.86697492 -2.57129254 4.97607712 -5 7 C-5.66 7 -6.32 7 -7 7 C-3.86206897 0 -3.86206897 0 0 0 Z " fill="#565656" transform="translate(162,108)"/>
<path d="M0 0 C0.99 0 1.98 0 3 0 C3 0.66 3 1.32 3 2 C3.66 2 4.32 2 5 2 C5 2.66 5 3.32 5 4 C4.01 4 3.02 4 2 4 C1.67 4.99 1.34 5.98 1 7 C0.67 4.69 0.34 2.38 0 0 Z " fill="#971D1F" transform="translate(351,261)"/>
<path d="M0 0 C1.65 0.99 3.3 1.98 5 3 C4.67 4.65 4.34 6.3 4 8 C3.34 8 2.68 8 2 8 C2.33 6.35 2.66 4.7 3 3 C2.01 2.67 1.02 2.34 0 2 C0 1.34 0 0.68 0 0 Z " fill="#6F0B0D" transform="translate(400,251)"/>
<path d="M0 0 C0 3.99904969 -1.72586967 5.80200422 -4 9 C-5 7 -5 7 -4.25 4.5 C-3 2 -3 2 0 0 Z " fill="#6A0407" transform="translate(307,222)"/>
<path d="M0 0 C2 1 4 2 6 3 C3 5 3 5 -1 5 C-0.67 3.35 -0.34 1.7 0 0 Z " fill="#EC5B55" transform="translate(218,204)"/>
<path d="M0 0 C0.66 0 1.32 0 2 0 C5.10096154 5.45769231 5.10096154 5.45769231 4.58984375 8.203125 C4.39519531 8.79609375 4.20054687 9.3890625 4 10 C3.32845067 8.71086513 2.66291141 7.41859796 2 6.125 C1.62875 5.40570313 1.2575 4.68640625 0.875 3.9453125 C0 2 0 2 0 0 Z " fill="#280000" transform="translate(181,198)"/>
<path d="M0 0 C0.99 0 1.98 0 3 0 C3.33 1.65 3.66 3.3 4 5 C2.68 4.67 1.36 4.34 0 4 C0 2.68 0 1.36 0 0 Z " fill="#D45653" transform="translate(155,246)"/>
<path d="M0 0 C0.8353125 0.37125 0.8353125 0.37125 1.6875 0.75 C1.048125 1.03875 0.40875 1.3275 -0.25 1.625 C-2.46456079 2.57823451 -2.46456079 2.57823451 -3.3125 4.75 C-4.6325 4.42 -5.9525 4.09 -7.3125 3.75 C-2.88173077 -0.31153846 -2.88173077 -0.31153846 0 0 Z " fill="#7A090C" transform="translate(391.3125,244.25)"/>
<path d="M0 0 C-2.64 1.98 -5.28 3.96 -8 6 C-7.8125 3.625 -7.8125 3.625 -7 1 C-2.77108434 -1.38554217 -2.77108434 -1.38554217 0 0 Z " fill="#9E080C" transform="translate(352,203)"/>
<path d="M0 0 C0.99 0 1.98 0 3 0 C3.33 0.66 3.66 1.32 4 2 C3.67 2.99 3.34 3.98 3 5 C1.68 5 0.36 5 -1 5 C-0.67 3.35 -0.34 1.7 0 0 Z " fill="#E95550" transform="translate(293,194)"/>
</svg>
